<svg width="50" height="50" viewBox="0 0 50 50" fill="none" xmlns="http://www.w3.org/2000/svg">
<rect width="50" height="50" fill="white"/>
<path d="M28.8469 26.0703L26.6694 28.2367C25.7863 29.1153 24.2326 29.1343 23.3305 28.2367L21.1528 26.0703L13.3317 33.8503C13.6229 33.9838 13.9438 34.0635 14.2851 34.0635H35.7148C36.056 34.0635 36.3769 33.9839 36.6679 33.8504L28.8469 26.0703Z" fill="black"/>
<path d="M35.7147 15.937H14.2851C13.9438 15.937 13.6228 16.0167 13.3318 16.1501L21.6892 24.4642C21.6898 24.4648 21.6904 24.4649 21.691 24.4654C21.6915 24.466 21.6916 24.4668 21.6916 24.4668L24.4091 27.1701C24.6977 27.4563 25.3021 27.4563 25.5908 27.1701L28.3077 24.4672C28.3077 24.4672 28.3083 24.466 28.3089 24.4654C28.3089 24.4654 28.3101 24.4648 28.3107 24.4642L36.6679 16.1501C36.3769 16.0166 36.056 15.937 35.7147 15.937Z" fill="black"/>
<path d="M12.243 17.2065C12.0924 17.5085 11.9999 17.8438 11.9999 18.2029V31.7976C11.9999 32.1567 12.0923 32.492 12.2429 32.794L20.0776 25.0005L12.243 17.2065Z" fill="black"/>
<path d="M37.7569 17.2061L29.9223 25.0001L37.7569 32.7937C37.9075 32.4917 37.9999 32.1564 37.9999 31.7972V18.2025C37.9999 17.8433 37.9075 17.5081 37.7569 17.2061Z" fill="black"/>
</svg>
