<svg width="50" height="50" viewBox="0 0 50 50" fill="none" xmlns="http://www.w3.org/2000/svg">
<rect width="50" height="50" fill="white"/>
<path d="M25 12.5415C17.8175 12.5415 12 18.2615 12 25.3162C12 30.9614 15.7245 35.7487 20.8888 37.4365C21.5388 37.5568 21.7771 37.1613 21.7771 36.8223C21.7771 36.5189 21.7663 35.7151 21.7608 34.6502C18.1447 35.4204 17.382 32.9363 17.382 32.9363C16.7905 31.4619 15.9358 31.0676 15.9358 31.0676C14.7582 30.2757 16.0268 30.2919 16.0268 30.2919C17.3322 30.3808 18.0179 31.6082 18.0179 31.6082C19.1771 33.5614 21.061 32.997 21.8042 32.6709C21.9212 31.8443 22.2559 31.2821 22.6275 30.9625C19.7404 30.6429 16.706 29.5444 16.706 24.6499C16.706 23.2557 17.2098 22.116 18.0439 21.2223C17.8977 20.8994 17.4589 19.6005 18.1577 17.8412C18.1577 17.8412 19.2464 17.4988 21.7327 19.1509C22.7727 18.8671 23.8777 18.7263 24.9827 18.7198C26.0877 18.7263 27.1927 18.8671 28.2327 19.1509C30.7027 17.4988 31.7914 17.8412 31.7914 17.8412C32.4902 19.6005 32.0514 20.8994 31.9214 21.2223C32.7502 22.116 33.2539 23.2557 33.2539 24.6499C33.2539 29.5574 30.2152 30.6375 27.3227 30.9517C27.7777 31.3352 28.2002 32.1184 28.2002 33.3155C28.2002 35.025 28.1839 36.3987 28.1839 36.8136C28.1839 37.1483 28.4114 37.5481 29.0777 37.4203C34.2788 35.7433 38 30.9528 38 25.3162C38 18.2615 32.1793 12.5415 25 12.5415Z" fill="black"/>
</svg>
