<svg width="50" height="50" viewBox="0 0 50 50" fill="none" xmlns="http://www.w3.org/2000/svg">
<rect width="50" height="50" fill="white"/>
<path d="M37.9339 19.6768C37.873 18.3038 37.6496 17.3598 37.3295 16.5419C36.9993 15.6737 36.4912 14.8964 35.8257 14.2502C35.1754 13.594 34.388 13.0841 33.5244 12.7611C32.6965 12.443 31.7515 12.221 30.3697 12.1604C28.9777 12.0948 28.5357 12.0796 25.0051 12.0796C21.4744 12.0796 21.0325 12.0948 19.6456 12.1553C18.2638 12.2158 17.3139 12.4381 16.4909 12.7559C15.617 13.0841 14.8347 13.5888 14.1844 14.2502C13.524 14.8964 13.0111 15.6788 12.6858 16.537C12.3657 17.3598 12.1423 18.2986 12.0814 19.6716C12.0153 21.0549 12 21.494 12 25.0023C12 28.5107 12.0153 28.9498 12.0762 30.3279C12.1371 31.7009 12.3608 32.6449 12.6809 33.4628C13.0111 34.331 13.524 35.1083 14.1844 35.7545C14.8347 36.4107 15.6222 36.9206 16.4858 37.2436C17.3139 37.5617 18.2586 37.7837 19.6406 37.8442C21.0273 37.905 21.4694 37.92 25.0001 37.92C28.5308 37.92 28.9727 37.905 30.3596 37.8442C31.7414 37.7837 32.6913 37.5617 33.5142 37.2436C35.2619 36.5722 36.6437 35.1992 37.3193 33.4628C37.6392 32.6399 37.8629 31.7009 37.9238 30.3279C37.9847 28.9498 38 28.5107 38 25.0023C38 21.494 37.9948 21.0549 37.9339 19.6768ZM35.5921 30.227C35.5362 31.489 35.3228 32.1704 35.145 32.6247C34.7081 33.7505 33.8089 34.6439 32.676 35.0781C32.2188 35.2548 31.528 35.4668 30.263 35.5222C28.8913 35.5829 28.48 35.5979 25.0102 35.5979C21.5405 35.5979 21.1239 35.5829 19.7573 35.5222C18.4873 35.4668 17.8014 35.2548 17.3442 35.0781C16.7805 34.8711 16.2673 34.543 15.8508 34.1139C15.4189 33.6949 15.0887 33.1901 14.8804 32.6299C14.7026 32.1756 14.4892 31.489 14.4335 30.2321C14.3724 28.8691 14.3573 28.4602 14.3573 25.0124C14.3573 21.5646 14.3724 21.1507 14.4335 19.7929C14.4892 18.5309 14.7026 17.8494 14.8804 17.3951C15.0887 16.8347 15.4189 16.325 15.8559 15.9109C16.2774 15.4818 16.7854 15.1537 17.3494 14.9469C17.8066 14.7702 18.4976 14.5582 19.7624 14.5026C21.1341 14.4421 21.5456 14.4269 25.0152 14.4269C28.4901 14.4269 28.9015 14.4421 30.2681 14.5026C31.5382 14.5582 32.224 14.7702 32.6812 14.9469C33.2449 15.1537 33.7581 15.4818 34.1746 15.9109C34.6065 16.3299 34.9367 16.8347 35.145 17.3951C35.3228 17.8494 35.5362 18.5358 35.5921 19.7929C35.653 21.1558 35.6683 21.5646 35.6683 25.0124C35.6683 28.4602 35.653 28.864 35.5921 30.227Z" fill="black"/>
<path d="M25.005 18.3643C21.317 18.3643 18.3247 21.3374 18.3247 25.0023C18.3247 28.6672 21.317 31.6404 25.005 31.6404C28.6933 31.6404 31.6854 28.6672 31.6854 25.0023C31.6854 21.3374 28.6933 18.3643 25.005 18.3643ZM25.005 29.3083C22.6124 29.3083 20.6717 27.38 20.6717 25.0023C20.6717 22.6246 22.6124 20.6964 25.005 20.6964C27.3978 20.6964 29.3384 22.6246 29.3384 25.0023C29.3384 27.38 27.3978 29.3083 25.005 29.3083Z" fill="black"/>
<path d="M33.5093 18.1024C33.5093 18.9582 32.8109 19.6521 31.9495 19.6521C31.0883 19.6521 30.39 18.9582 30.39 18.1024C30.39 17.2464 31.0883 16.5527 31.9495 16.5527C32.8109 16.5527 33.5093 17.2464 33.5093 18.1024Z" fill="black"/>
</svg>
