<svg width="50" height="50" viewBox="0 0 50 50" fill="none" xmlns="http://www.w3.org/2000/svg">
<rect width="50" height="50" fill="white"/>
<path d="M38 27.8085V37.4224H32.4261V28.4528C32.4261 26.2007 31.6214 24.6627 29.6032 24.6627C28.0632 24.6627 27.1482 25.6981 26.7442 26.7007C26.5975 27.059 26.5596 27.5566 26.5596 28.0592V37.422H20.9854C20.9854 37.422 21.0602 22.2305 20.9854 20.658H26.5601V23.0336C26.5488 23.0523 26.533 23.0706 26.5231 23.0885H26.5601V23.0336C27.3008 21.8938 28.6218 20.2643 31.5836 20.2643C35.2507 20.2643 38 22.6603 38 27.8085ZM15.1542 12.5771C13.2475 12.5771 12 13.8288 12 15.4732C12 17.0827 13.2113 18.3705 15.081 18.3705H15.1172C17.0613 18.3705 18.2701 17.0827 18.2701 15.4732C18.2331 13.8288 17.0613 12.5771 15.1542 12.5771ZM12.3313 37.4224H17.9035V20.658H12.3313V37.4224Z" fill="black"/>
</svg>
