<svg width="50" height="50" viewBox="0 0 50 50" fill="none" xmlns="http://www.w3.org/2000/svg">
<rect width="50" height="50" fill="white"/>
<path d="M37.1637 30.72C37.0926 30.6637 31.9333 26.9448 30.5172 27.2117C29.8412 27.3313 29.4547 27.7924 28.679 28.7154C28.5542 28.8645 28.2543 29.2215 28.0212 29.4755C27.531 29.3156 27.0528 29.121 26.5903 28.8931C24.2031 27.7309 22.2743 25.8021 21.1121 23.4149C20.8841 22.9524 20.6895 22.4743 20.5297 21.984C20.7845 21.75 21.1416 21.4501 21.2941 21.3219C22.2128 20.5505 22.6747 20.164 22.7943 19.4863C23.0396 18.0823 19.3233 12.8875 19.2843 12.8407C19.1157 12.5998 18.8957 12.3994 18.6401 12.254C18.3846 12.1086 18.0999 12.0219 17.8067 12C16.3004 12 12 17.5787 12 18.5182C12 18.5728 12.0789 24.1229 18.9229 31.0849C25.8779 37.9211 31.4272 38 31.4818 38C32.4221 38 38 33.6996 38 32.1933C37.9784 31.9012 37.8921 31.6174 37.7475 31.3626C37.6029 31.1078 37.4035 30.8883 37.1637 30.72Z" fill="black"/>
</svg>
