<svg width="50" height="50" viewBox="0 0 50 50" fill="none" xmlns="http://www.w3.org/2000/svg">
<rect width="50" height="50" fill="white"/>
<path d="M35.9778 18.9043H33.2202V13.9727C33.2202 13.5022 32.8322 13.1206 32.3535 13.1206H17.6465C17.1679 13.1206 16.7798 13.5021 16.7798 13.9727V18.9043H14.0222C12.9072 18.9043 12 19.7963 12 20.8926V29.4653C12 30.5616 12.9072 31.4535 14.0222 31.4535H16.7799V36.0276C16.7799 36.4982 17.168 36.8797 17.6466 36.8797H32.3534C32.832 36.8797 33.2201 36.4982 33.2201 36.0276V31.4535H35.9778C37.0928 31.4535 38 30.5616 38 29.4653V20.8926C38 19.7963 37.0928 18.9043 35.9778 18.9043ZM18.5131 14.8248H31.4868V18.9043H18.5131V14.8248ZM31.4867 35.1755H18.5133C18.5133 35.009 18.5133 28.4101 18.5133 28.2042H31.4867C31.4867 28.4153 31.4867 35.0154 31.4867 35.1755ZM32.3535 23.9079H30.1474C29.6688 23.9079 29.2808 23.5264 29.2808 23.0557C29.2808 22.5851 29.6688 22.2036 30.1474 22.2036H32.3535C32.8321 22.2036 33.2202 22.5851 33.2202 23.0557C33.2202 23.5264 32.8322 23.9079 32.3535 23.9079Z" fill="black"/>
</svg>
