<svg width="50" height="50" viewBox="0 0 50 50" fill="none" xmlns="http://www.w3.org/2000/svg">
<rect width="50" height="50" fill="white"/>
<path fill-rule="evenodd" clip-rule="evenodd" d="M28.9377 28.572C27.9471 28.572 27.1164 27.7587 27.1164 26.7553C27.1164 25.7507 27.9471 24.9107 28.9377 24.9107C29.927 24.9107 30.7291 25.7507 30.7291 26.7553C30.7291 27.7587 29.9283 28.572 28.9377 28.572ZM29.1899 31.9287C28.315 32.8147 26.9435 33.2458 24.9987 33.2458C23.0526 33.2458 21.6824 32.8147 20.8088 31.9287C20.619 31.7362 20.619 31.4249 20.8088 31.2311C20.9973 31.0386 21.3054 31.0386 21.4952 31.2311C22.1777 31.9233 23.323 32.2606 24.9987 32.2606C26.6731 32.2606 27.8197 31.9233 28.5035 31.2311C28.692 31.0386 29.0001 31.0386 29.1899 31.2311C29.3797 31.4249 29.3797 31.7362 29.1899 31.9287ZM19.2696 26.7553C19.2696 25.752 20.099 24.9107 21.0883 24.9107C22.0776 24.9107 22.8797 25.752 22.8797 26.7553C22.8797 27.7587 22.0776 28.572 21.0883 28.572C20.099 28.572 19.2696 27.7587 19.2696 26.7553ZM38 24.7577C38 23.111 36.6792 21.7711 35.0555 21.7711C34.3067 21.7711 33.6008 22.0544 33.06 22.5621C31.1165 21.2792 28.5139 20.45 25.6318 20.3366L27.2217 15.4152L31.3973 16.4118C31.3986 17.7672 32.4854 18.8684 33.8218 18.8684C35.1582 18.8684 36.2463 17.7647 36.2463 16.4093C36.2463 15.0539 35.1582 13.9502 33.8218 13.9502C32.8208 13.9502 31.9615 14.5669 31.591 15.4463C30.6914 15.2314 27.4752 14.4628 26.5756 14.2479L24.6126 20.3264C21.6213 20.3831 18.9108 21.2082 16.8945 22.5214C16.3602 22.0402 15.6686 21.7711 14.9432 21.7711C13.3208 21.7711 12 23.111 12 24.7577C12 25.8033 12.5382 26.7614 13.3988 27.2993C12.6149 31.9957 18.071 36.0502 24.9454 36.0502C31.7912 36.0502 37.2291 32.0316 36.5037 27.359C37.4241 26.8356 38 25.8547 38 24.7577Z" fill="black"/>
</svg>
