<svg width="0" height="0" class="hidden">
	<symbol fill="none"
		xmlns="http://www.w3.org/2000/svg" viewBox="0 0 50 50" id="facebook">
		<rect width="50" height="50" fill="var(--bg-color, #3b5998)"></rect>
		<path d="M27.0711 38V26.141H31.1637L31.7777 21.518H27.0711V18.5669C27.0711 17.2289 27.4517 16.317 29.4275 16.317L31.9434 16.316V12.181C31.5083 12.126 30.0148 12 28.2765 12C24.6467 12 22.1617 14.1541 22.1617 18.1091V21.518H18.0566V26.141H22.1617V38H27.0711Z" fill="var(--icon-color, #fff)"></path>
	</symbol>
	<symbol fill="none"
		xmlns="http://www.w3.org/2000/svg" viewBox="0 0 50 50" id="linkedin">
		<rect width="50" height="50" fill="var(--bg-color, #0077b5)"></rect>
		<path d="M38 27.8085V37.4224H32.4261V28.4528C32.4261 26.2007 31.6214 24.6627 29.6032 24.6627C28.0632 24.6627 27.1482 25.6981 26.7442 26.7007C26.5975 27.059 26.5596 27.5566 26.5596 28.0592V37.422H20.9854C20.9854 37.422 21.0602 22.2305 20.9854 20.658H26.5601V23.0336C26.5488 23.0523 26.533 23.0706 26.5231 23.0885H26.5601V23.0336C27.3008 21.8938 28.6218 20.2643 31.5836 20.2643C35.2507 20.2643 38 22.6603 38 27.8085ZM15.1542 12.5771C13.2475 12.5771 12 13.8288 12 15.4732C12 17.0827 13.2113 18.3705 15.081 18.3705H15.1172C17.0613 18.3705 18.2701 17.0827 18.2701 15.4732C18.2331 13.8288 17.0613 12.5771 15.1542 12.5771ZM12.3313 37.4224H17.9035V20.658H12.3313V37.4224Z" fill="var(--icon-color, #fff)"></path>
	</symbol>
	<symbol fill="none"
		xmlns="http://www.w3.org/2000/svg" viewBox="0 0 50 50" id="youtube">
		<rect width="50" height="50" fill="var(--bg-color, #FF0000)"></rect>
		<path d="M37.4643 18.7659C37.1647 17.6555 36.2865 16.7802 35.1728 16.4812C33.1382 15.9263 24.9997 15.9263 24.9997 15.9263C24.9997 15.9263 16.8615 15.9263 14.8269 16.4602C13.7347 16.7589 12.835 17.6557 12.5354 18.7659C12 20.794 12 25 12 25C12 25 12 29.2272 12.5354 31.2341C12.8354 32.3443 13.7132 33.2196 14.8271 33.5186C16.8829 34.0737 25 34.0737 25 34.0737C25 34.0737 33.1382 34.0737 35.1728 33.5398C36.2867 33.241 37.1647 32.3657 37.4646 31.2554C37.9999 29.2272 37.9999 25.0214 37.9999 25.0214C37.9999 25.0214 38.0213 20.794 37.4643 18.7659ZM22.4086 28.8856V21.1144L29.1762 25L22.4086 28.8856Z" fill="var(--icon-color, #fff)"></path>
	</symbol>
	<symbol fill="none"
		xmlns="http://www.w3.org/2000/svg" viewBox="0 0 50 50" id="x">
		<rect width="50" height="50" fill="var(--bg-color, #1DA1F2)"></rect>
		<path d="M27.426 23.0092L36.9189 12H34.6694L26.4267 21.5592L19.8433 12H12.2501L22.2055 26.4551L12.2501 38H14.4998L23.2042 27.9052L30.1568 38H37.7499L27.4254 23.0092H27.426ZM24.3448 26.5825L23.3361 25.1431L15.3103 13.6896H18.7656L25.2425 22.9329L26.2512 24.3723L34.6704 36.3873H31.2151L24.3448 26.583V26.5825Z" fill="var(--icon-color, #fff)"></path>
	</symbol>
	<symbol fill="none"
		xmlns="http://www.w3.org/2000/svg" viewBox="0 0 50 50" id="instagram">
		<rect width="50" height="50" fill="var(--bg-color, #e4405f)"></rect>
		<path d="M37.9339 19.6768C37.873 18.3038 37.6496 17.3598 37.3295 16.5419C36.9993 15.6737 36.4912 14.8964 35.8257 14.2502C35.1754 13.594 34.388 13.0841 33.5244 12.7611C32.6965 12.443 31.7515 12.221 30.3697 12.1604C28.9777 12.0948 28.5357 12.0796 25.0051 12.0796C21.4744 12.0796 21.0325 12.0948 19.6456 12.1553C18.2638 12.2158 17.3139 12.4381 16.4909 12.7559C15.617 13.0841 14.8347 13.5888 14.1844 14.2502C13.524 14.8964 13.0111 15.6788 12.6858 16.537C12.3657 17.3598 12.1423 18.2986 12.0814 19.6716C12.0153 21.0549 12 21.494 12 25.0023C12 28.5107 12.0153 28.9498 12.0762 30.3279C12.1371 31.7009 12.3608 32.6449 12.6809 33.4628C13.0111 34.331 13.524 35.1083 14.1844 35.7545C14.8347 36.4107 15.6222 36.9206 16.4858 37.2436C17.3139 37.5617 18.2586 37.7837 19.6406 37.8442C21.0273 37.905 21.4694 37.92 25.0001 37.92C28.5308 37.92 28.9727 37.905 30.3596 37.8442C31.7414 37.7837 32.6913 37.5617 33.5142 37.2436C35.2619 36.5722 36.6437 35.1992 37.3193 33.4628C37.6392 32.6399 37.8629 31.7009 37.9238 30.3279C37.9847 28.9498 38 28.5107 38 25.0023C38 21.494 37.9948 21.0549 37.9339 19.6768ZM35.5921 30.227C35.5362 31.489 35.3228 32.1704 35.145 32.6247C34.7081 33.7505 33.8089 34.6439 32.676 35.0781C32.2188 35.2548 31.528 35.4668 30.263 35.5222C28.8913 35.5829 28.48 35.5979 25.0102 35.5979C21.5405 35.5979 21.1239 35.5829 19.7573 35.5222C18.4873 35.4668 17.8014 35.2548 17.3442 35.0781C16.7805 34.8711 16.2673 34.543 15.8508 34.1139C15.4189 33.6949 15.0887 33.1901 14.8804 32.6299C14.7026 32.1756 14.4892 31.489 14.4335 30.2321C14.3724 28.8691 14.3573 28.4602 14.3573 25.0124C14.3573 21.5646 14.3724 21.1507 14.4335 19.7929C14.4892 18.5309 14.7026 17.8494 14.8804 17.3951C15.0887 16.8347 15.4189 16.325 15.8559 15.9109C16.2774 15.4818 16.7854 15.1537 17.3494 14.9469C17.8066 14.7702 18.4976 14.5582 19.7624 14.5026C21.1341 14.4421 21.5456 14.4269 25.0152 14.4269C28.4901 14.4269 28.9015 14.4421 30.2681 14.5026C31.5382 14.5582 32.224 14.7702 32.6812 14.9469C33.2449 15.1537 33.7581 15.4818 34.1746 15.9109C34.6065 16.3299 34.9367 16.8347 35.145 17.3951C35.3228 17.8494 35.5362 18.5358 35.5921 19.7929C35.653 21.1558 35.6683 21.5646 35.6683 25.0124C35.6683 28.4602 35.653 28.864 35.5921 30.227Z" fill="var(--icon-color, #fff)"></path>
		<path d="M25.005 18.3643C21.317 18.3643 18.3247 21.3374 18.3247 25.0023C18.3247 28.6672 21.317 31.6404 25.005 31.6404C28.6933 31.6404 31.6854 28.6672 31.6854 25.0023C31.6854 21.3374 28.6933 18.3643 25.005 18.3643ZM25.005 29.3083C22.6124 29.3083 20.6717 27.38 20.6717 25.0023C20.6717 22.6246 22.6124 20.6964 25.005 20.6964C27.3978 20.6964 29.3384 22.6246 29.3384 25.0023C29.3384 27.38 27.3978 29.3083 25.005 29.3083Z" fill="var(--icon-color, #fff)"></path>
		<path d="M33.5093 18.1024C33.5093 18.9582 32.8109 19.6521 31.9495 19.6521C31.0883 19.6521 30.39 18.9582 30.39 18.1024C30.39 17.2464 31.0883 16.5527 31.9495 16.5527C32.8109 16.5527 33.5093 17.2464 33.5093 18.1024Z" fill="var(--icon-color, #fff)"></path>
	</symbol>
	<symbol fill="none"
		xmlns="http://www.w3.org/2000/svg" viewBox="0 0 50 50" id="github">
		<rect width="50" height="50" fill="var(--bg-color, #000000)"></rect>
		<path d="M25 12.5415C17.8175 12.5415 12 18.2615 12 25.3162C12 30.9614 15.7245 35.7487 20.8888 37.4365C21.5388 37.5568 21.7771 37.1613 21.7771 36.8223C21.7771 36.5189 21.7663 35.7151 21.7608 34.6502C18.1447 35.4204 17.382 32.9363 17.382 32.9363C16.7905 31.4619 15.9358 31.0676 15.9358 31.0676C14.7582 30.2757 16.0268 30.2919 16.0268 30.2919C17.3322 30.3808 18.0179 31.6082 18.0179 31.6082C19.1771 33.5614 21.061 32.997 21.8042 32.6709C21.9212 31.8443 22.2559 31.2821 22.6275 30.9625C19.7404 30.6429 16.706 29.5444 16.706 24.6499C16.706 23.2557 17.2098 22.116 18.0439 21.2223C17.8977 20.8994 17.4589 19.6005 18.1577 17.8412C18.1577 17.8412 19.2464 17.4988 21.7327 19.1509C22.7727 18.8671 23.8777 18.7263 24.9827 18.7198C26.0877 18.7263 27.1927 18.8671 28.2327 19.1509C30.7027 17.4988 31.7914 17.8412 31.7914 17.8412C32.4902 19.6005 32.0514 20.8994 31.9214 21.2223C32.7502 22.116 33.2539 23.2557 33.2539 24.6499C33.2539 29.5574 30.2152 30.6375 27.3227 30.9517C27.7777 31.3352 28.2002 32.1184 28.2002 33.3155C28.2002 35.025 28.1839 36.3987 28.1839 36.8136C28.1839 37.1483 28.4114 37.5481 29.0777 37.4203C34.2788 35.7433 38 30.9528 38 25.3162C38 18.2615 32.1793 12.5415 25 12.5415Z" fill="var(--icon-color, #ffffff)"></path>
	</symbol>
	<symbol fill="none"
		xmlns="http://www.w3.org/2000/svg" viewBox="0 0 50 50" id="threads">
		<rect width="50" height="50" fill="var(--bg-color, #000000)"></rect>
		<path d="M25.1996 38H25.1922C21.3456 37.9736 18.3885 36.6947 16.4016 34.1975C14.6329 31.9756 13.7211 28.8839 13.6905 25.0094V24.9906C13.7212 21.1152 14.6329 18.0243 16.4016 15.8024C18.3875 13.3052 21.3456 12.0262 25.1912 12H25.2061C28.1548 12.0197 30.6218 12.7846 32.539 14.2715C34.3411 15.6695 35.6095 17.662 36.3095 20.1948L34.1184 20.8109C32.9328 16.5216 29.932 14.3287 25.1987 14.294C22.0735 14.3165 19.7106 15.3071 18.174 17.2379C16.7349 19.0459 15.9912 21.6574 15.9642 24.9991C15.9921 28.3417 16.7358 30.9532 18.174 32.7603C19.7106 34.6909 22.0735 35.6815 25.1987 35.704C28.0156 35.6835 29.88 35.0215 31.4306 33.4897C33.2002 31.7415 33.1677 29.5973 32.6013 28.2931C32.268 27.5243 31.6625 26.8839 30.8464 26.3988C30.6413 27.8614 30.1798 29.0487 29.4668 29.9429C28.516 31.1367 27.168 31.7894 25.4614 31.882C24.1699 31.9522 22.9258 31.6442 21.9602 31.014C20.8182 30.2687 20.1497 29.1282 20.0782 27.8024C20.0086 26.5132 20.5155 25.3277 21.5052 24.4644C22.4514 23.6395 23.7818 23.1555 25.3537 23.0665C26.5124 23.0009 27.5959 23.0525 28.5977 23.221C28.4649 22.4166 28.1957 21.779 27.7946 21.3183C27.2431 20.6844 26.3898 20.3605 25.2599 20.353H25.2284C24.3213 20.353 23.0892 20.6039 22.3037 21.7818L20.4162 20.5019C21.4672 18.926 23.1746 18.059 25.2274 18.059H25.2739C28.7064 18.0805 30.75 20.1976 30.9533 23.8951C31.0702 23.9448 31.1845 23.9962 31.2977 24.0496C32.8993 24.809 34.0701 25.9588 34.6847 27.3746C35.5408 29.3483 35.6197 32.5646 33.0209 35.1301C31.0359 37.0907 28.6256 37.9756 25.2061 37.999H25.1987L25.1996 38ZM26.2766 25.3342C26.0166 25.3342 25.7529 25.3417 25.4836 25.3576C23.5107 25.47 22.2814 26.3811 22.351 27.6788C22.4244 29.0383 23.9118 29.6703 25.3407 29.5927C26.6563 29.5214 28.3685 29.0055 28.6553 25.5729C27.9292 25.4166 27.1308 25.3342 26.2766 25.3342H26.2766Z" fill="var(--icon-color, #ffffff)"></path>
	</symbol>
	<symbol fill="none"
		xmlns="http://www.w3.org/2000/svg" viewBox="0 0 50 50" id="tiktok">
		<rect width="50" height="50" fill="var(--bg-color, #000000)"></rect>
		<path d="M36.4093 18.51C34.9232 18.51 33.552 18.0177 32.4509 17.1872C31.188 16.2351 30.2807 14.8385 29.9603 13.2288C29.8809 12.831 29.8382 12.4206 29.8341 12H25.5889V23.6001L25.5838 29.954C25.5838 31.6527 24.4776 33.0931 22.9442 33.5996C22.4992 33.7466 22.0185 33.8163 21.5181 33.7888C20.8793 33.7537 20.2806 33.561 19.7604 33.2497C18.6531 32.5875 17.9024 31.3862 17.8821 30.012C17.8501 27.8642 19.5864 26.1131 21.7327 26.1131C22.1564 26.1131 22.5632 26.1822 22.9442 26.3079V23.1373V21.9975C22.5424 21.938 22.1335 21.907 21.72 21.907C19.3708 21.907 17.1736 22.8835 15.6031 24.6427C14.416 25.9722 13.704 27.6684 13.5941 29.4469C13.4502 31.7834 14.3051 34.0045 15.9632 35.6432C16.2068 35.8837 16.4626 36.107 16.7301 36.313C18.1517 37.407 19.8895 38 21.72 38C22.1335 38 22.5424 37.9695 22.9442 37.91C24.6541 37.6567 26.2317 36.874 27.4768 35.6432C29.0067 34.1311 29.8519 32.1237 29.8611 29.987L29.8392 20.4987C30.5691 21.0617 31.3671 21.5276 32.2235 21.8892C33.5555 22.4512 34.9679 22.736 36.4215 22.7355V19.6529V18.509C36.4225 18.51 36.4103 18.51 36.4093 18.51Z" fill="var(--icon-color, #ffffff)"></path>
	</symbol>
	<symbol fill="none"
		xmlns="http://www.w3.org/2000/svg" viewBox="0 0 50 50" id="reddit">
		<rect width="50" height="50" fill="var(--bg-color, #FF5700)"></rect>
		<path fill-rule="evenodd" clip-rule="evenodd" d="M28.9377 28.572C27.9471 28.572 27.1164 27.7587 27.1164 26.7553C27.1164 25.7507 27.9471 24.9107 28.9377 24.9107C29.927 24.9107 30.7291 25.7507 30.7291 26.7553C30.7291 27.7587 29.9283 28.572 28.9377 28.572ZM29.1899 31.9287C28.315 32.8147 26.9435 33.2458 24.9987 33.2458C23.0526 33.2458 21.6824 32.8147 20.8088 31.9287C20.619 31.7362 20.619 31.4249 20.8088 31.2311C20.9973 31.0386 21.3054 31.0386 21.4952 31.2311C22.1777 31.9233 23.323 32.2606 24.9987 32.2606C26.6731 32.2606 27.8197 31.9233 28.5035 31.2311C28.692 31.0386 29.0001 31.0386 29.1899 31.2311C29.3797 31.4249 29.3797 31.7362 29.1899 31.9287ZM19.2696 26.7553C19.2696 25.752 20.099 24.9107 21.0883 24.9107C22.0776 24.9107 22.8797 25.752 22.8797 26.7553C22.8797 27.7587 22.0776 28.572 21.0883 28.572C20.099 28.572 19.2696 27.7587 19.2696 26.7553ZM38 24.7577C38 23.111 36.6792 21.7711 35.0555 21.7711C34.3067 21.7711 33.6008 22.0544 33.06 22.5621C31.1165 21.2792 28.5139 20.45 25.6318 20.3366L27.2217 15.4152L31.3973 16.4118C31.3986 17.7672 32.4854 18.8684 33.8218 18.8684C35.1582 18.8684 36.2463 17.7647 36.2463 16.4093C36.2463 15.0539 35.1582 13.9502 33.8218 13.9502C32.8208 13.9502 31.9615 14.5669 31.591 15.4463C30.6914 15.2314 27.4752 14.4628 26.5756 14.2479L24.6126 20.3264C21.6213 20.3831 18.9108 21.2082 16.8945 22.5214C16.3602 22.0402 15.6686 21.7711 14.9432 21.7711C13.3208 21.7711 12 23.111 12 24.7577C12 25.8033 12.5382 26.7614 13.3988 27.2993C12.6149 31.9957 18.071 36.0502 24.9454 36.0502C31.7912 36.0502 37.2291 32.0316 36.5037 27.359C37.4241 26.8356 38 25.8547 38 24.7577Z" fill="var(--icon-color, #fff)"/>
	</symbol>
	<symbol fill="none"
		xmlns="http://www.w3.org/2000/svg" viewBox="0 0 50 50" id="telegram">
		<rect width="50" height="50" fill="var(--bg-color, #0088CC)"></rect>
		<path d="M37.9259 16.0822L34.0023 34.5859C33.706 35.8916 32.9343 36.2167 31.8375 35.6019L25.8588 31.1963L22.9743 33.9712C22.6549 34.2906 22.3883 34.5571 21.7726 34.5571L22.2026 28.4688L33.2826 18.4568C33.7645 18.0278 33.1776 17.7891 32.534 18.2191L18.8362 26.8445L12.9391 24.9983C11.6566 24.5981 11.6334 23.7159 13.2066 23.1001L36.2719 14.2137C37.3399 13.8134 38.2742 14.4505 37.9259 16.0822Z" fill="var(--icon-color, #fff)"/>
	</symbol>
	<symbol fill="none"
		xmlns="http://www.w3.org/2000/svg" viewBox="0 0 50 50" id="whatsapp">
		<rect width="50" height="50" fill="var(--bg-color, #25D366)"></rect>
		<path d="M31.2387 26.9401C31.1881 26.9157 29.2926 25.9824 28.9558 25.8611C28.8183 25.8118 28.671 25.7636 28.5143 25.7636C28.2583 25.7636 28.0433 25.8911 27.8758 26.1417C27.6865 26.4231 27.1133 27.0931 26.9362 27.2933C26.9131 27.3197 26.8815 27.3513 26.8626 27.3513C26.8456 27.3513 26.5523 27.2305 26.4635 27.1919C24.4302 26.3086 22.8868 24.1846 22.6752 23.8265C22.6449 23.775 22.6437 23.7516 22.6434 23.7516C22.6509 23.7243 22.7192 23.6558 22.7545 23.6204C22.8578 23.5183 22.9696 23.3836 23.0778 23.2534C23.1291 23.1917 23.1804 23.1299 23.2308 23.0716C23.3878 22.889 23.4577 22.7471 23.5387 22.5829L23.5812 22.4975C23.7791 22.1044 23.6101 21.7726 23.5555 21.6655C23.5106 21.5759 22.7103 19.6443 22.6252 19.4413C22.4206 18.9516 22.1502 18.7236 21.7745 18.7236C21.7396 18.7236 21.7745 18.7236 21.6282 18.7298C21.4502 18.7373 20.4807 18.8649 20.052 19.1352C19.5975 19.4218 18.8284 20.3353 18.8284 21.9419C18.8284 23.3879 19.746 24.7531 20.14 25.2723C20.1498 25.2854 20.1678 25.312 20.1939 25.3502C21.7026 27.5536 23.5835 29.1865 25.4902 29.9482C27.3258 30.6814 28.195 30.7662 28.6892 30.7662H28.6893C28.8969 30.7662 29.0632 30.7499 29.2098 30.7355L29.3028 30.7266C29.9369 30.6704 31.3305 29.9483 31.6475 29.0674C31.8972 28.3736 31.963 27.6156 31.7969 27.3404C31.6831 27.1534 31.487 27.0593 31.2387 26.9401Z" fill="var(--icon-color, #fff)"/>
		<path d="M25.2308 12C18.1892 12 12.4604 17.6857 12.4604 24.6744C12.4604 26.9348 13.0654 29.1474 14.2113 31.0839L12.0179 37.554C11.9771 37.6746 12.0075 37.808 12.0967 37.8988C12.1611 37.9646 12.2485 38 12.3377 38C12.3719 38 12.4063 37.9949 12.4399 37.9842L19.1864 35.8403C21.0326 36.8267 23.1192 37.3474 25.2309 37.3474C32.2719 37.3475 38.0001 31.6623 38.0001 24.6744C38.0001 17.6857 32.2719 12 25.2308 12ZM25.2308 34.7073C23.2438 34.7073 21.3192 34.1335 19.6648 33.0479C19.6092 33.0114 19.5446 32.9927 19.4796 32.9927C19.4452 32.9927 19.4108 32.9979 19.3773 33.0085L15.9977 34.0828L17.0887 30.8641C17.124 30.7599 17.1063 30.6451 17.0413 30.5562C15.7815 28.8348 15.1156 26.801 15.1156 24.6744C15.1156 19.1416 19.6532 14.6402 25.2308 14.6402C30.8076 14.6402 35.3448 19.1416 35.3448 24.6744C35.3449 30.2066 30.8078 34.7073 25.2308 34.7073Z" fill="var(--icon-color, #fff)"/>
	</symbol>
	<symbol fill="none"
		xmlns="http://www.w3.org/2000/svg" viewBox="0 0 50 50" id="email">
		<rect width="50" height="50" fill="var(--bg-color, #000000)"></rect>
		<path d="M28.8469 26.0703L26.6694 28.2367C25.7863 29.1153 24.2326 29.1343 23.3305 28.2367L21.1528 26.0703L13.3317 33.8503C13.6229 33.9838 13.9438 34.0635 14.2851 34.0635H35.7148C36.056 34.0635 36.3769 33.9839 36.6679 33.8504L28.8469 26.0703Z" fill="var(--icon-color, #ffffff)"></path>
		<path d="M35.7147 15.937H14.2851C13.9438 15.937 13.6228 16.0167 13.3318 16.1501L21.6892 24.4642C21.6898 24.4648 21.6904 24.4649 21.691 24.4654C21.6915 24.466 21.6916 24.4668 21.6916 24.4668L24.4091 27.1701C24.6977 27.4563 25.3021 27.4563 25.5908 27.1701L28.3077 24.4672C28.3077 24.4672 28.3083 24.466 28.3089 24.4654C28.3089 24.4654 28.3101 24.4648 28.3107 24.4642L36.6679 16.1501C36.3769 16.0166 36.056 15.937 35.7147 15.937Z" fill="var(--icon-color, #ffffff)"></path>
		<path d="M12.243 17.2065C12.0924 17.5085 11.9999 17.8438 11.9999 18.2029V31.7976C11.9999 32.1567 12.0923 32.492 12.2429 32.794L20.0776 25.0005L12.243 17.2065Z" fill="var(--icon-color, #ffffff)"></path>
		<path d="M37.7569 17.2061L29.9223 25.0001L37.7569 32.7937C37.9075 32.4917 37.9999 32.1564 37.9999 31.7972V18.2025C37.9999 17.8433 37.9075 17.5081 37.7569 17.2061Z" fill="var(--icon-color, #ffffff)"></path>
	</symbol>
	<symbol fill="none"
		xmlns="http://www.w3.org/2000/svg" viewBox="0 0 50 50" id="print">
		<rect width="50" height="50" fill="var(--bg-color, #000000)"></rect>
		<path d="M35.9778 18.9043H33.2202V13.9727C33.2202 13.5022 32.8322 13.1206 32.3535 13.1206H17.6465C17.1679 13.1206 16.7798 13.5021 16.7798 13.9727V18.9043H14.0222C12.9072 18.9043 12 19.7963 12 20.8926V29.4653C12 30.5616 12.9072 31.4535 14.0222 31.4535H16.7799V36.0276C16.7799 36.4982 17.168 36.8797 17.6466 36.8797H32.3534C32.832 36.8797 33.2201 36.4982 33.2201 36.0276V31.4535H35.9778C37.0928 31.4535 38 30.5616 38 29.4653V20.8926C38 19.7963 37.0928 18.9043 35.9778 18.9043ZM18.5131 14.8248H31.4868V18.9043H18.5131V14.8248ZM31.4867 35.1755H18.5133C18.5133 35.009 18.5133 28.4101 18.5133 28.2042H31.4867C31.4867 28.4153 31.4867 35.0154 31.4867 35.1755ZM32.3535 23.9079H30.1474C29.6688 23.9079 29.2808 23.5264 29.2808 23.0557C29.2808 22.5851 29.6688 22.2036 30.1474 22.2036H32.3535C32.8321 22.2036 33.2202 22.5851 33.2202 23.0557C33.2202 23.5264 32.8322 23.9079 32.3535 23.9079Z" fill="var(--icon-color, #ffffff)"></path>
	</symbol>
</svg>
