<svg width="50" height="50" viewBox="0 0 50 50" fill="none" xmlns="http://www.w3.org/2000/svg">
<rect width="50" height="50" fill="white"/>
<path d="M25.1996 38H25.1922C21.3456 37.9736 18.3885 36.6947 16.4016 34.1975C14.6329 31.9756 13.7211 28.8839 13.6905 25.0094V24.9906C13.7212 21.1152 14.6329 18.0243 16.4016 15.8024C18.3875 13.3052 21.3456 12.0262 25.1912 12H25.2061C28.1548 12.0197 30.6218 12.7846 32.539 14.2715C34.3411 15.6695 35.6095 17.662 36.3095 20.1948L34.1184 20.8109C32.9328 16.5216 29.932 14.3287 25.1987 14.294C22.0735 14.3165 19.7106 15.3071 18.174 17.2379C16.7349 19.0459 15.9912 21.6574 15.9642 24.9991C15.9921 28.3417 16.7358 30.9532 18.174 32.7603C19.7106 34.6909 22.0735 35.6815 25.1987 35.704C28.0156 35.6835 29.88 35.0215 31.4306 33.4897C33.2002 31.7415 33.1677 29.5973 32.6013 28.2931C32.268 27.5243 31.6625 26.8839 30.8464 26.3988C30.6413 27.8614 30.1798 29.0487 29.4668 29.9429C28.516 31.1367 27.168 31.7894 25.4614 31.882C24.1699 31.9522 22.9258 31.6442 21.9602 31.014C20.8182 30.2687 20.1497 29.1282 20.0782 27.8024C20.0086 26.5132 20.5155 25.3277 21.5052 24.4644C22.4514 23.6395 23.7818 23.1555 25.3537 23.0665C26.5124 23.0009 27.5959 23.0525 28.5977 23.221C28.4649 22.4166 28.1957 21.779 27.7946 21.3183C27.2431 20.6844 26.3898 20.3605 25.2599 20.353H25.2284C24.3213 20.353 23.0892 20.6039 22.3037 21.7818L20.4162 20.5019C21.4672 18.926 23.1746 18.059 25.2274 18.059H25.2739C28.7064 18.0805 30.75 20.1976 30.9533 23.8951C31.0702 23.9448 31.1845 23.9962 31.2977 24.0496C32.8993 24.809 34.0701 25.9588 34.6847 27.3746C35.5408 29.3483 35.6197 32.5646 33.0209 35.1301C31.0359 37.0907 28.6256 37.9756 25.2061 37.999H25.1987L25.1996 38ZM26.2766 25.3342C26.0166 25.3342 25.7529 25.3417 25.4836 25.3576C23.5107 25.47 22.2814 26.3811 22.351 27.6788C22.4244 29.0383 23.9118 29.6703 25.3407 29.5927C26.6563 29.5214 28.3685 29.0055 28.6553 25.5729C27.9292 25.4166 27.1308 25.3342 26.2766 25.3342H26.2766Z" fill="black"/>
</svg>
