<svg width="50" height="50" viewBox="0 0 50 50" fill="none" xmlns="http://www.w3.org/2000/svg">
<rect width="50" height="50" fill="white"/>
<path d="M36.4093 18.51C34.9232 18.51 33.552 18.0177 32.4509 17.1872C31.188 16.2351 30.2807 14.8385 29.9603 13.2288C29.8809 12.831 29.8382 12.4206 29.8341 12H25.5889V23.6001L25.5838 29.954C25.5838 31.6527 24.4776 33.0931 22.9442 33.5996C22.4992 33.7466 22.0185 33.8163 21.5181 33.7888C20.8793 33.7537 20.2806 33.561 19.7604 33.2497C18.6531 32.5875 17.9024 31.3862 17.8821 30.012C17.8501 27.8642 19.5864 26.1131 21.7327 26.1131C22.1564 26.1131 22.5632 26.1822 22.9442 26.3079V23.1373V21.9975C22.5424 21.938 22.1335 21.907 21.72 21.907C19.3708 21.907 17.1736 22.8835 15.6031 24.6427C14.416 25.9722 13.704 27.6684 13.5941 29.4469C13.4502 31.7834 14.3051 34.0045 15.9632 35.6432C16.2068 35.8837 16.4626 36.107 16.7301 36.313C18.1517 37.407 19.8895 38 21.72 38C22.1335 38 22.5424 37.9695 22.9442 37.91C24.6541 37.6567 26.2317 36.874 27.4768 35.6432C29.0067 34.1311 29.8519 32.1237 29.8611 29.987L29.8392 20.4987C30.5691 21.0617 31.3671 21.5276 32.2235 21.8892C33.5555 22.4512 34.9679 22.736 36.4215 22.7355V19.6529V18.509C36.4225 18.51 36.4103 18.51 36.4093 18.51Z" fill="black"/>
</svg>
