<svg width="50" height="50" viewBox="0 0 50 50" fill="none" xmlns="http://www.w3.org/2000/svg">
<rect width="50" height="50" fill="white"/>
<path d="M31.2387 26.9401C31.1881 26.9157 29.2926 25.9824 28.9558 25.8611C28.8183 25.8118 28.671 25.7636 28.5143 25.7636C28.2583 25.7636 28.0433 25.8911 27.8758 26.1417C27.6865 26.4231 27.1133 27.0931 26.9362 27.2933C26.9131 27.3197 26.8815 27.3513 26.8626 27.3513C26.8456 27.3513 26.5523 27.2305 26.4635 27.1919C24.4302 26.3086 22.8868 24.1846 22.6752 23.8265C22.6449 23.775 22.6437 23.7516 22.6434 23.7516C22.6509 23.7243 22.7192 23.6558 22.7545 23.6204C22.8578 23.5183 22.9696 23.3836 23.0778 23.2534C23.1291 23.1917 23.1804 23.1299 23.2308 23.0716C23.3878 22.889 23.4577 22.7471 23.5387 22.5829L23.5812 22.4975C23.7791 22.1044 23.6101 21.7726 23.5555 21.6655C23.5106 21.5759 22.7103 19.6443 22.6252 19.4413C22.4206 18.9516 22.1502 18.7236 21.7745 18.7236C21.7396 18.7236 21.7745 18.7236 21.6282 18.7298C21.4502 18.7373 20.4807 18.8649 20.052 19.1352C19.5975 19.4218 18.8284 20.3353 18.8284 21.9419C18.8284 23.3879 19.746 24.7531 20.14 25.2723C20.1498 25.2854 20.1678 25.312 20.1939 25.3502C21.7026 27.5536 23.5835 29.1865 25.4902 29.9482C27.3258 30.6814 28.195 30.7662 28.6892 30.7662H28.6893C28.8969 30.7662 29.0632 30.7499 29.2098 30.7355L29.3028 30.7266C29.9369 30.6704 31.3305 29.9483 31.6475 29.0674C31.8972 28.3736 31.963 27.6156 31.7969 27.3404C31.6831 27.1534 31.487 27.0593 31.2387 26.9401Z" fill="black"/>
<path d="M25.2308 12C18.1892 12 12.4604 17.6857 12.4604 24.6744C12.4604 26.9348 13.0654 29.1474 14.2113 31.0839L12.0179 37.554C11.9771 37.6746 12.0075 37.808 12.0967 37.8988C12.1611 37.9646 12.2485 38 12.3377 38C12.3719 38 12.4063 37.9949 12.4399 37.9842L19.1864 35.8403C21.0326 36.8267 23.1192 37.3474 25.2309 37.3474C32.2719 37.3475 38.0001 31.6623 38.0001 24.6744C38.0001 17.6857 32.2719 12 25.2308 12ZM25.2308 34.7073C23.2438 34.7073 21.3192 34.1335 19.6648 33.0479C19.6092 33.0114 19.5446 32.9927 19.4796 32.9927C19.4452 32.9927 19.4108 32.9979 19.3773 33.0085L15.9977 34.0828L17.0887 30.8641C17.124 30.7599 17.1063 30.6451 17.0413 30.5562C15.7815 28.8348 15.1156 26.801 15.1156 24.6744C15.1156 19.1416 19.6532 14.6402 25.2308 14.6402C30.8076 14.6402 35.3448 19.1416 35.3448 24.6744C35.3449 30.2066 30.8078 34.7073 25.2308 34.7073Z" fill="black"/>
</svg>
