<svg width="50" height="50" viewBox="0 0 50 50" fill="none" xmlns="http://www.w3.org/2000/svg">
<rect width="50" height="50" fill="white"/>
<path d="M37.4643 18.7659C37.1647 17.6555 36.2865 16.7802 35.1728 16.4812C33.1382 15.9263 24.9997 15.9263 24.9997 15.9263C24.9997 15.9263 16.8615 15.9263 14.8269 16.4602C13.7347 16.7589 12.835 17.6557 12.5354 18.7659C12 20.794 12 25 12 25C12 25 12 29.2272 12.5354 31.2341C12.8354 32.3443 13.7132 33.2196 14.8271 33.5186C16.8829 34.0737 25 34.0737 25 34.0737C25 34.0737 33.1382 34.0737 35.1728 33.5398C36.2867 33.241 37.1647 32.3657 37.4646 31.2554C37.9999 29.2272 37.9999 25.0214 37.9999 25.0214C37.9999 25.0214 38.0213 20.794 37.4643 18.7659ZM22.4086 28.8856V21.1144L29.1762 25L22.4086 28.8856Z" fill="black"/>
</svg>
