<?xml version="1.0" encoding="UTF-8"?>
<svg id="Layer_1" data-name="Layer 1" xmlns="http://www.w3.org/2000/svg" xmlns:xlink="http://www.w3.org/1999/xlink" viewBox="0 0 125 125">
  <defs>
    <style>
      .cls-1 {
        opacity: .07;
      }

      .cls-1, .cls-2 {
        isolation: isolate;
      }

      .cls-1, .cls-2, .cls-3, .cls-4 {
        stroke-width: 0px;
      }

      .cls-2 {
        fill: url(#linear-gradient);
        opacity: .15;
      }

      .cls-3 {
        fill: #fff;
      }

      .cls-4 {
        fill: #ff5000;
      }
    </style>
    <linearGradient id="linear-gradient" x1="10.05" y1="69.42" x2="63.76" y2="69.42" gradientUnits="userSpaceOnUse">
      <stop offset="0" stop-color="#fff"/>
      <stop offset=".2" stop-color="#fff"/>
      <stop offset="1" stop-color="#fff" stop-opacity=".7"/>
    </linearGradient>
  </defs>
  <path class="cls-4" d="m115.69,40.28l-3.91-10.5,2.69-6.1c.24-.73.24-1.71-.49-2.2l-7.32-7.32c-1.56-1.57-3.53-2.68-5.69-3.19-2.16-.52-4.41-.43-6.52.27l-1.95.73L81.27,0l-38.09.24-11.23,12.21-1.95-.73c-3.91-1.71-8.79-.49-11.96,2.69l-7.32,7.57c-.49.49-.49,1.22-.24,1.71l2.69,6.35-3.91,10.5,13.67,52.49c1.32,4.95,4.35,9.27,8.54,12.21,0,0,13.67,9.76,27.34,18.55,1.22.73,2.44,1.22,3.66,1.22,1.32-.03,2.59-.46,3.66-1.22l27.34-18.55c4.13-3.01,7.13-7.3,8.55-12.21l11.23-42.97,2.44-9.77h0Z"/>
  <path class="cls-2" d="m23.4,94.73l-14.4-53.47,4.15-10.5-2.93-7.81,7.08-6.84c2.2-1.95,6.84-2.69,8.79-1.46l10.99,6.35,14.16,3.17,10.99-4.64.98,94.73c-.24,13.67.73,12.21-9.28,5.86l-24.9-16.84c-2.69-2.44-4.64-5.37-5.62-8.55h-.01Z"/>
  <path class="cls-3" d="m65.64,77.39c-.98-.49-1.95-.73-2.2-.73h-1.46c-.24,0-1.22.24-2.2.73l-3.42,1.46-3.91,1.71-6.1,3.17c-.98.49-.98,1.46-.24,2.2l5.37,3.91,4.88,3.91c.98.73,2.2,1.95,3.17,2.69l1.46,1.22c.45.36,1.01.55,1.59.55s1.13-.19,1.59-.55l1.46-1.22c.98-.73,2.2-1.95,3.17-2.69l1.46-1.22,3.42-2.69,5.37-3.91c.98-.73.98-1.71-.24-2.2l-6.1-3.17-3.91-1.71-3.17-1.46h.01Zm38.09-34.67l.24-.49c0-.73,0-1.71-.24-2.2,0-.49-1.46-2.69-1.95-3.66l-3.42-5.13-2.44-3.42-4.64-5.86c-.73-.98-1.46-1.71-1.46-1.71l-2.2.49-7.08,1.46-3.17.49c-.73,0-1.95,0-3.17-.49l-5.62-1.95c-1.22-.24-2.93-.98-4.15-1.22h-3.42c-1.22.24-2.93.73-4.15,1.22l-5.62,1.95-3.17.49c-.49,0-1.95-.49-3.17-.49l-7.08-1.46-2.2-.49s-.73.73-1.46,1.71l-4.64,5.62c-.73.98-1.95,2.44-2.44,3.42l-3.42,5.13c-.63.85-1.2,1.75-1.71,2.69-.24.49-.49,2.69-.49,3.17l.24.49.24.98c.73.98,1.95,2.44,2.69,3.17l12.21,12.94c.73.73.98,2.44.73,3.42l-1.95,4.64c-.49.98-.49,2.93,0,3.91l.49,1.22c.73,1.71,1.71,3.42,3.17,4.64l1.95,1.46c.98.73,2.44.98,3.42.49l6.84-3.17c1.23-.59,2.37-1.33,3.42-2.2l5.37-4.88c.98-.73.98-2.2,0-3.17l-12.45-8.3c-.98-.73-1.22-1.95-.73-2.93l4.88-9.03c.49-.98.73-2.69.24-3.66-.49-.98-1.71-1.95-2.69-2.44l-15.14-5.62c-.98-.49-.98-.73.24-.98l8.79-.73c1.22,0,2.93,0,4.15.49l7.81,2.2c1.22.24,1.95,1.46,1.71,2.69l-2.93,16.36c-.24,1.22-.24,2.44-.24,2.69.24.49,1.22.98,2.2,1.22l4.64.98c1.22.24,2.93.24,4.15,0l4.15-.98c1.22-.24,2.2-.73,2.2-1.22s0-1.71-.24-2.69l-2.93-16.6c-.24-1.22.49-2.44,1.71-2.69l7.57-2.2c1.22-.24,2.93-.49,4.15-.49l8.79.73c1.22,0,1.22.49.24.98l-15.14,5.62c-.98.49-2.2,1.46-2.69,2.44-.49.98-.24,2.44.24,3.66l4.88,9.03c.49.98.24,2.44-.73,2.93l-12.21,8.79c-.98.98-.73,2.44,0,3.17l5.37,4.88c1.08.82,2.22,1.55,3.42,2.2l6.84,3.17c.98.49,2.69.24,3.42-.49l1.95-1.46c1.46-1.22,2.69-2.69,3.17-4.64l.49-1.22c.49-.98.24-2.93,0-3.91l-1.95-4.64c-.49-.98-.24-2.69.73-3.42l12.21-12.94c.73-.73,1.95-2.2,2.68-3.17.16,0,.32-.33.49-.98h.01Z"/>
  <path class="cls-1" d="m93.47,104.98l-21,14.4c-5.86,3.17-8.79,6.35-9.28,4.88-.49-1.22,0-4.64-.24-10.25l-.24-92.77c0-.98.73-2.44,1.71-2.2l10.74,3.17,15.38-2.44,10.5-7.32c1.22-.73,2.69-.73,3.66.24l9.03,8.79c.73.98.98,2.69.49,3.66l-2.44,4.64,4.15,10.99-14.4,53.96c-2.2,6.35-5.37,8.06-8.06,10.25Z"/>
</svg>