<?xml version="1.0" encoding="UTF-8"?>
<svg id="Layer_1" data-name="Layer 1" xmlns="http://www.w3.org/2000/svg" xmlns:xlink="http://www.w3.org/1999/xlink" viewBox="0 0 125 125">
  <defs>
    <style>
      .cls-1 {
        fill: url(#linear-gradient);
      }

      .cls-1, .cls-2, .cls-3, .cls-4, .cls-5, .cls-6, .cls-7, .cls-8 {
        stroke-width: 0px;
      }

      .cls-2 {
        fill: #61bc5b;
      }

      .cls-3 {
        fill: #5ab055;
      }

      .cls-4 {
        fill: #df3a32;
      }

      .cls-5 {
        fill: #fff;
      }

      .cls-6 {
        fill: #ef3f36;
      }

      .cls-7 {
        fill: #fcd900;
      }

      .cls-8 {
        fill: #eaca05;
      }
    </style>
    <linearGradient id="linear-gradient" x1="62.18" y1="71.42" x2="62.18" y2="4526.29" gradientTransform="translate(0 1)" gradientUnits="userSpaceOnUse">
      <stop offset="0" stop-color="#86bbe5"/>
      <stop offset="1" stop-color="#1072ba"/>
    </linearGradient>
  </defs>
  <path class="cls-6" d="m62.34,0s36.25-1.65,55.47,35.25h-58.55s-11.05-.36-20.49,13.21c-2.71,5.7-5.63,11.57-2.36,23.13-4.71-8.08-25.01-43.88-25.01-43.88,0,.01,14.32-26.25,50.94-27.71Z"/>
  <path class="cls-7" d="m115.93,93.68s-16.73,32.62-57.87,31.01c5.08-8.91,29.28-51.35,29.28-51.35,0,0,5.85-9.51-1.05-24.58-3.51-5.23-7.08-10.71-18.61-13.63,9.27-.09,50.03,0,50.03,0,0,0,15.27,25.69-1.78,58.54h0Z"/>
  <path class="cls-2" d="m9.01,93.94s-19.54-30.98,2.42-66.26c5.07,8.91,29.27,51.35,29.27,51.35,0,0,5.22,9.89,21.54,11.36,6.22-.46,12.69-.86,20.96-9.49-4.56,8.17-25.02,43.87-25.02,43.87,0,0-29.62.55-49.18-30.82h.01Z"/>
  <path class="cls-3" d="m58.04,125l8.24-34.8s9.05-.72,16.64-9.15c-4.71,8.39-24.88,43.95-24.88,43.95Z"/>
  <path class="cls-5" d="m34.75,62.89c0-15.34,12.29-27.78,27.44-27.78s27.44,12.44,27.44,27.78-12.29,27.78-27.44,27.78c-15.15-.02-27.44-12.44-27.44-27.78Z"/>
  <path class="cls-1" d="m39.34,62.89c0-12.77,10.22-23.13,22.85-23.13s22.84,10.35,22.84,23.13-10.22,23.13-22.84,23.13-22.85-10.37-22.85-23.13Z"/>
  <path class="cls-8" d="m117.69,35.16l-33.91,10.07s-5.12-7.6-16.12-10.07c9.54-.05,50.03,0,50.03,0Z"/>
  <path class="cls-4" d="m35.75,70.34c-4.76-8.36-24.35-42.61-24.35-42.61l25.12,25.16s-2.58,5.37-1.61,13.06l.85,4.39h0Z"/>
</svg>