<?xml version="1.0" encoding="UTF-8"?>
<svg id="Layer_1" data-name="Layer 1" xmlns="http://www.w3.org/2000/svg" xmlns:xlink="http://www.w3.org/1999/xlink" viewBox="0 0 125 125">
  <defs>
    <style>
      .cls-1 {
        fill: url(#linear-gradient);
      }

      .cls-1, .cls-2, .cls-3, .cls-4, .cls-5, .cls-6, .cls-7, .cls-8, .cls-9, .cls-10, .cls-11, .cls-12 {
        stroke-width: 0px;
      }

      .cls-2 {
        fill: url(#radial-gradient);
      }

      .cls-3 {
        fill: url(#radial-gradient-10);
      }

      .cls-4 {
        fill: url(#radial-gradient-2);
      }

      .cls-5 {
        fill: url(#radial-gradient-3);
      }

      .cls-6 {
        fill: url(#radial-gradient-4);
      }

      .cls-7 {
        fill: url(#radial-gradient-6);
      }

      .cls-8 {
        fill: url(#radial-gradient-9);
      }

      .cls-9 {
        fill: url(#radial-gradient-8);
      }

      .cls-10 {
        fill: url(#radial-gradient-5);
      }

      .cls-11 {
        fill: url(#radial-gradient-7);
      }

      .cls-12 {
        fill: url(#linear-gradient-2);
      }
    </style>
    <linearGradient id="linear-gradient" x1="110.21" y1="17.85" x2="9.65" y2="115.89" gradientTransform="translate(0 1)" gradientUnits="userSpaceOnUse">
      <stop offset=".05" stop-color="#fff44f"/>
      <stop offset=".11" stop-color="#ffe847"/>
      <stop offset=".22" stop-color="#ffc830"/>
      <stop offset=".37" stop-color="#ff980e"/>
      <stop offset=".4" stop-color="#ff8b16"/>
      <stop offset=".46" stop-color="#ff672a"/>
      <stop offset=".53" stop-color="#ff3647"/>
      <stop offset=".7" stop-color="#e31587"/>
    </linearGradient>
    <radialGradient id="radial-gradient" cx="-241.1" cy="-331.36" fx="-241.1" fy="-331.36" r="1" gradientTransform="translate(30860.58 41846.87) scale(127.56 126.24)" gradientUnits="userSpaceOnUse">
      <stop offset=".13" stop-color="#ffbd4f"/>
      <stop offset=".19" stop-color="#ffac31"/>
      <stop offset=".25" stop-color="#ff9d17"/>
      <stop offset=".28" stop-color="#ff980e"/>
      <stop offset=".4" stop-color="#ff563b"/>
      <stop offset=".47" stop-color="#ff3750"/>
      <stop offset=".71" stop-color="#f5156c"/>
      <stop offset=".78" stop-color="#eb0878"/>
      <stop offset=".86" stop-color="#e50080"/>
    </radialGradient>
    <radialGradient id="radial-gradient-2" cx="-241.1" cy="-331.36" fx="-241.1" fy="-331.36" r="1" gradientTransform="translate(30813.97 41898.48) scale(127.56 126.24)" gradientUnits="userSpaceOnUse">
      <stop offset=".3" stop-color="#960e18"/>
      <stop offset=".35" stop-color="#b11927" stop-opacity=".74"/>
      <stop offset=".43" stop-color="#db293d" stop-opacity=".34"/>
      <stop offset=".5" stop-color="#f5334b" stop-opacity=".09"/>
      <stop offset=".53" stop-color="#ff3750" stop-opacity="0"/>
    </radialGradient>
    <radialGradient id="radial-gradient-3" cx="-240.37" cy="-330.36" fx="-240.37" fy="-330.36" r="1" gradientTransform="translate(22288.26 30199.13) scale(92.41 91.46)" gradientUnits="userSpaceOnUse">
      <stop offset=".13" stop-color="#fff44f"/>
      <stop offset=".25" stop-color="#ffdc3e"/>
      <stop offset=".51" stop-color="#ff9d12"/>
      <stop offset=".53" stop-color="#ff980e"/>
    </radialGradient>
    <radialGradient id="radial-gradient-4" cx="-239" cy="-328.46" fx="-239" fy="-328.46" r="1" gradientTransform="translate(14561.51 19842.06) scale(60.74 60.11)" gradientUnits="userSpaceOnUse">
      <stop offset=".35" stop-color="#3a8ee6"/>
      <stop offset=".47" stop-color="#5c79f0"/>
      <stop offset=".67" stop-color="#9059ff"/>
      <stop offset="1" stop-color="#c139e6"/>
    </radialGradient>
    <radialGradient id="radial-gradient-5" cx="-238.12" cy="-323.82" fx="-238.12" fy="-323.82" r="1" gradientTransform="translate(10382.62 10003.61) rotate(-13.76) scale(32.16 37.43)" gradientUnits="userSpaceOnUse">
      <stop offset=".21" stop-color="#9059ff" stop-opacity="0"/>
      <stop offset=".28" stop-color="#8c4ff3" stop-opacity=".06"/>
      <stop offset=".75" stop-color="#7716a8" stop-opacity=".45"/>
      <stop offset=".97" stop-color="#6e008b" stop-opacity=".6"/>
    </radialGradient>
    <radialGradient id="radial-gradient-6" cx="-237.44" cy="-326.3" fx="-237.44" fy="-326.3" r="1" gradientTransform="translate(10432.94 14120.03) scale(43.7 43.24)" gradientUnits="userSpaceOnUse">
      <stop offset="0" stop-color="#ffe226"/>
      <stop offset=".12" stop-color="#ffdb27"/>
      <stop offset=".3" stop-color="#ffc82a"/>
      <stop offset=".5" stop-color="#ffa930"/>
      <stop offset=".73" stop-color="#ff7e37"/>
      <stop offset=".79" stop-color="#ff7139"/>
    </radialGradient>
    <radialGradient id="radial-gradient-7" cx="-241.7" cy="-332.2" fx="-241.7" fy="-332.2" r="1" gradientTransform="translate(45151.39 61272.2) scale(186.43 184.5)" gradientUnits="userSpaceOnUse">
      <stop offset=".11" stop-color="#fff44f"/>
      <stop offset=".46" stop-color="#ff980e"/>
      <stop offset=".62" stop-color="#ff5634"/>
      <stop offset=".72" stop-color="#ff3647"/>
      <stop offset=".9" stop-color="#e31587"/>
    </radialGradient>
    <radialGradient id="radial-gradient-8" cx="-240.35" cy="-336.33" fx="-240.35" fy="-336.33" r="1" gradientTransform="translate(-26512.2 35209.51) rotate(84.17) scale(134.5 89.27)" gradientUnits="userSpaceOnUse">
      <stop offset="0" stop-color="#fff44f"/>
      <stop offset=".06" stop-color="#ffe847"/>
      <stop offset=".17" stop-color="#ffc830"/>
      <stop offset=".3" stop-color="#ff980e"/>
      <stop offset=".36" stop-color="#ff8b16"/>
      <stop offset=".45" stop-color="#ff672a"/>
      <stop offset=".57" stop-color="#ff3647"/>
      <stop offset=".74" stop-color="#e31587"/>
    </radialGradient>
    <radialGradient id="radial-gradient-9" cx="-240.91" cy="-331.11" fx="-240.91" fy="-331.11" r="1" gradientTransform="translate(28095.81 38164.14) scale(116.39 115.18)" gradientUnits="userSpaceOnUse">
      <stop offset=".14" stop-color="#fff44f"/>
      <stop offset=".48" stop-color="#ff980e"/>
      <stop offset=".59" stop-color="#ff5634"/>
      <stop offset=".66" stop-color="#ff3647"/>
      <stop offset=".9" stop-color="#e31587"/>
    </radialGradient>
    <radialGradient id="radial-gradient-10" cx="-241.09" cy="-331.36" fx="-241.09" fy="-331.36" r="1" gradientTransform="translate(30799.53 41805.85) scale(127.39 126.07)" gradientUnits="userSpaceOnUse">
      <stop offset=".09" stop-color="#fff44f"/>
      <stop offset=".23" stop-color="#ffe141"/>
      <stop offset=".51" stop-color="#ffaf1e"/>
      <stop offset=".63" stop-color="#ff980e"/>
    </radialGradient>
    <linearGradient id="linear-gradient-2" x1="108.98" y1="17.34" x2="23.45" y2="103.77" gradientTransform="translate(0 1)" gradientUnits="userSpaceOnUse">
      <stop offset=".17" stop-color="#fff44f" stop-opacity=".8"/>
      <stop offset=".27" stop-color="#fff44f" stop-opacity=".63"/>
      <stop offset=".49" stop-color="#fff44f" stop-opacity=".22"/>
      <stop offset=".6" stop-color="#fff44f" stop-opacity="0"/>
    </linearGradient>
  </defs>
  <path class="cls-1" d="m118.81,41.92c-2.66-6.33-8.05-13.17-12.27-15.33,3.44,6.68,5.43,13.38,6.19,18.38,0,0,0,.04.01.1-6.92-17.07-18.65-23.95-28.23-38.94-.49-.76-.97-1.51-1.44-2.32-.27-.46-.48-.87-.67-1.26-.4-.76-.7-1.56-.91-2.39,0-.04-.01-.08-.04-.11-.03-.03-.06-.05-.1-.06-.04,0-.08,0-.11,0-.01,0-.02,0-.03.02-.02,0-.03.02-.05.02L81.19,0c-15.37,8.91-20.59,25.39-21.06,33.64-6.14.42-12.02,2.65-16.85,6.42-.51-.42-1.03-.82-1.58-1.18-1.39-4.83-1.45-9.94-.17-14.8-6.29,2.83-11.17,7.31-14.73,11.27h-.03c-2.43-3.04-2.26-13.07-2.12-15.17-.03-.13-1.81.91-2.04,1.07-2.14,1.51-4.14,3.21-5.98,5.07-2.09,2.1-4,4.37-5.71,6.78-3.94,5.52-6.73,11.76-8.21,18.35-.03.13-.05.27-.08.4-.11.53-.53,3.2-.6,3.78v.13c-.54,2.76-.88,5.55-1.01,8.36v.31c0,33.44,27.4,60.56,61.19,60.56,30.27,0,55.39-21.75,60.31-50.31.1-.77.19-1.55.28-2.34,1.22-10.39-.14-21.3-3.97-30.43h-.02Zm-70.53,47.4c.29.13.56.28.85.41l.04.03c-.29-.14-.59-.29-.89-.44Zm64.47-44.22v-.06.07h0Z"/>
  <path class="cls-2" d="m118.81,41.93c-2.66-6.33-8.05-13.17-12.27-15.33,3.44,6.68,5.43,13.38,6.19,18.38v.12c5.77,15.49,2.63,31.25-1.9,40.87-7.01,14.89-23.99,30.16-50.56,29.41-28.69-.81-53.98-21.9-58.7-49.5-.86-4.36,0-6.57.43-10.1-.53,2.72-.73,3.51-.99,8.36v.31c0,33.44,27.4,60.56,61.19,60.56,30.27,0,55.39-21.75,60.31-50.31.1-.77.19-1.55.28-2.34,1.21-10.39-.14-21.3-3.98-30.43h0Z"/>
  <path class="cls-4" d="m118.81,41.93c-2.66-6.33-8.05-13.17-12.27-15.33,3.44,6.68,5.43,13.38,6.19,18.38v.12c5.77,15.49,2.63,31.25-1.9,40.87-7.01,14.89-23.99,30.16-50.56,29.41-28.69-.81-53.98-21.9-58.7-49.5-.86-4.36,0-6.57.43-10.1-.53,2.72-.73,3.51-.99,8.36v.31c0,33.44,27.4,60.56,61.19,60.56,30.27,0,55.39-21.75,60.31-50.31.1-.77.19-1.55.28-2.34,1.21-10.39-.14-21.3-3.98-30.43h0Z"/>
  <path class="cls-5" d="m89.07,49.04c.13.09.25.19.38.28-1.54-2.7-3.45-5.17-5.68-7.34C64.75,23.16,78.79,1.17,81.15.05l.03-.03c-15.37,8.91-20.59,25.39-21.06,33.64.71-.05,1.42-.11,2.15-.11,11.47,0,21.46,6.24,26.81,15.49h-.01Z"/>
  <path class="cls-6" d="m62.3,52.8c-.1,1.51-5.48,6.7-7.36,6.7-17.4,0-20.22,10.42-20.22,10.42.76,8.77,6.94,16,14.41,19.82.34.17.68.33,1.02.49.6.25,1.2.5,1.8.73,2.56.89,5.25,1.4,7.96,1.51,30.5,1.42,36.41-36.09,14.4-46.98,5.63-.97,11.49,1.28,14.75,3.55-5.35-9.25-15.34-15.49-26.81-15.49-.73,0-1.44.06-2.15.11-6.14.42-12,2.66-16.84,6.43.93.78,1.99,1.83,4.21,3.99,4.16,4.06,14.81,8.24,14.83,8.73h0Z"/>
  <path class="cls-10" d="m62.3,52.8c-.1,1.51-5.48,6.7-7.36,6.7-17.4,0-20.22,10.42-20.22,10.42.76,8.77,6.94,16,14.41,19.82.34.17.68.33,1.02.49.6.25,1.2.5,1.8.73,2.56.89,5.25,1.4,7.96,1.51,30.5,1.42,36.41-36.09,14.4-46.98,5.63-.97,11.49,1.28,14.75,3.55-5.35-9.25-15.34-15.49-26.81-15.49-.73,0-1.44.06-2.15.11-6.14.42-12,2.66-16.84,6.43.93.78,1.99,1.83,4.21,3.99,4.16,4.06,14.81,8.24,14.83,8.73h0Z"/>
  <path class="cls-7" d="m40.42,38.06c.5.32.9.58,1.27.83-1.39-4.83-1.45-9.94-.17-14.8-6.29,2.83-11.18,7.31-14.73,11.27.29,0,9.16-.17,13.63,2.71h0Z"/>
  <path class="cls-11" d="m1.57,65.88c4.72,27.6,30.01,48.7,58.72,49.5,26.57.74,43.54-14.52,50.56-29.41,4.53-9.63,7.68-25.38,1.9-40.87v-.12s0,.04.01.1c2.17,14.03-5.04,27.62-16.31,36.81-.01.03-.02.05-.03.08-21.96,17.7-42.97,10.68-47.23,7.81-.3-.14-.59-.29-.89-.44-12.8-6.05-18.09-17.6-16.96-27.5-10.81,0-14.49-9.03-14.49-9.03,0,0,9.71-6.85,22.5-.89,11.85,5.52,22.97.89,22.97.89-.02-.49-10.67-4.68-14.82-8.73-2.22-2.16-3.27-3.21-4.21-3.99-.51-.42-1.03-.82-1.58-1.18-.36-.25-.76-.5-1.27-.83-4.46-2.87-13.34-2.71-13.63-2.71h-.03c-2.43-3.04-2.26-13.07-2.12-15.17-.03-.13-1.81.91-2.04,1.07-2.14,1.51-4.14,3.21-5.98,5.07-2.09,2.1-4,4.37-5.71,6.78-3.94,5.52-6.73,11.76-8.21,18.35-.05.12-2.23,9.52-1.15,14.4h0Z"/>
  <path class="cls-9" d="m83.77,41.98c2.23,2.17,4.15,4.64,5.68,7.34.32.24.62.49.92.76,13.87,12.64,6.62,30.53,6.06,31.82,11.27-9.19,18.48-22.78,16.31-36.81-6.92-17.08-18.65-23.96-28.23-38.95-.49-.76-.97-1.51-1.44-2.32-.27-.46-.48-.87-.67-1.26-.4-.76-.7-1.56-.91-2.39,0-.04-.01-.08-.04-.11-.03-.03-.06-.05-.1-.06-.04,0-.08,0-.11,0-.01,0-.02,0-.03.02-.02,0-.03.02-.05.02-2.37,1.12-16.4,23.11,2.62,41.93h0Z"/>
  <path class="cls-8" d="m90.37,50.06c-.29-.27-.6-.52-.92-.76-.12-.09-.25-.19-.38-.28-3.27-2.27-9.12-4.52-14.75-3.55,22.01,10.89,16.1,48.4-14.4,46.98-2.72-.11-5.4-.62-7.96-1.51-.6-.22-1.2-.47-1.8-.73-.35-.16-.69-.31-1.02-.49l.04.02c4.25,2.87,25.27,9.89,47.23-7.81,0,0,.01-.03.03-.08.54-1.26,7.8-19.16-6.08-31.81v.02Z"/>
  <path class="cls-3" d="m34.72,69.92s2.82-10.42,20.22-10.42c1.88,0,7.26-5.2,7.36-6.7.1-1.51-11.13,4.63-22.97-.89-12.79-5.96-22.5.89-22.5.89,0,0,3.69,9.03,14.49,9.03-1.13,9.9,4.16,21.44,16.96,27.5.29.13.56.28.85.41-7.47-3.81-13.64-11.05-14.41-19.82Z"/>
  <path class="cls-12" d="m118.81,41.92c-2.66-6.33-8.05-13.17-12.27-15.33,3.44,6.68,5.43,13.38,6.19,18.38,0,0,0,.04.01.1-6.92-17.07-18.65-23.95-28.23-38.94-.49-.76-.97-1.51-1.44-2.32-.27-.46-.48-.87-.67-1.26-.4-.76-.7-1.56-.91-2.39,0-.04-.01-.08-.04-.11-.03-.03-.06-.05-.1-.06-.04,0-.08,0-.11,0-.01,0-.02,0-.03.02-.02,0-.03.02-.05.02L81.19,0c-15.37,8.91-20.59,25.39-21.06,33.64.71-.05,1.42-.11,2.15-.11,11.47,0,21.46,6.24,26.81,15.49-3.27-2.27-9.12-4.52-14.75-3.55,22.01,10.89,16.1,48.4-14.4,46.98-2.71-.11-5.4-.62-7.96-1.51-.6-.22-1.2-.47-1.8-.73-.35-.16-.69-.31-1.02-.49l.04.03c-.3-.14-.59-.29-.89-.44.28.13.56.28.85.41-7.49-3.82-13.66-11.05-14.43-19.83,0,0,2.82-10.42,20.22-10.42,1.88,0,7.26-5.2,7.36-6.7-.02-.49-10.67-4.68-14.82-8.73-2.22-2.16-3.27-3.21-4.21-3.99-.51-.42-1.03-.82-1.58-1.18-1.39-4.83-1.45-9.94-.17-14.8-6.29,2.83-11.18,7.31-14.73,11.27h-.03c-2.43-3.04-2.26-13.07-2.12-15.17-.03-.13-1.81.91-2.04,1.07-2.14,1.51-4.14,3.21-5.98,5.07-2.09,2.1-4,4.37-5.71,6.78-3.94,5.52-6.73,11.76-8.21,18.35-.03.13-.05.27-.08.4-.11.53-.63,3.24-.71,3.82,0,.05,0-.04,0,0-.48,2.8-.78,5.62-.91,8.45v.31c0,33.44,27.4,60.56,61.19,60.56,30.27,0,55.39-21.75,60.31-50.31.1-.77.19-1.55.28-2.34,1.22-10.39-.14-21.3-3.97-30.43v.02Z"/>
</svg>