<?xml version="1.0" encoding="UTF-8"?>
<svg id="Layer_1" data-name="Layer 1" xmlns="http://www.w3.org/2000/svg" xmlns:xlink="http://www.w3.org/1999/xlink" viewBox="0 0 125 125">
  <defs>
    <style>
      .cls-1 {
        fill: url(#linear-gradient);
      }

      .cls-1, .cls-2 {
        stroke-width: 0px;
      }

      .cls-2 {
        fill: url(#linear-gradient-2);
      }
    </style>
    <linearGradient id="linear-gradient" x1="52.08" y1="2.01" x2="52.08" y2="121.64" gradientTransform="translate(0 1)" gradientUnits="userSpaceOnUse">
      <stop offset=".3" stop-color="#ff1b2d"/>
      <stop offset=".44" stop-color="#fa1a2c"/>
      <stop offset=".59" stop-color="#ed1528"/>
      <stop offset=".76" stop-color="#d60e21"/>
      <stop offset=".93" stop-color="#b70519"/>
      <stop offset="1" stop-color="#a70014"/>
    </linearGradient>
    <linearGradient id="linear-gradient-2" x1="83.47" y1="9.06" x2="83.47" y2="114.87" gradientTransform="translate(0 1)" gradientUnits="userSpaceOnUse">
      <stop offset="0" stop-color="#9c0000"/>
      <stop offset=".7" stop-color="#ff4b4b"/>
    </linearGradient>
  </defs>
  <path class="cls-1" d="m41.94,97.48c-6.93-8.05-11.38-19.96-11.67-33.32v-2.89c.29-13.36,4.79-25.27,11.67-33.32,8.98-11.48,22.17-16.64,37.06-16.64,9.18,0,17.82.63,25.15,5.45C93.16,6.98,78.66,1.05,62.74,1h-.24C27.98,1,0,28.63,0,62.72s26.37,60.13,59.52,61.67c.98.05,2,.05,2.98.05,16.02,0,30.62-5.93,41.65-15.72-7.32,4.82-15.48,5.01-24.66,5.01-14.84.05-28.61-4.72-37.55-16.25Z"/>
  <path class="cls-2" d="m41.94,27.95c5.71-6.7,13.13-10.7,21.24-10.7,18.21,0,32.96,20.35,32.96,45.52s-14.75,45.52-32.96,45.52c-8.11,0-15.48-4.05-21.24-10.7,8.98,11.48,22.31,18.8,37.16,18.8,9.13,0,17.72-2.75,25.05-7.57,12.79-11.38,20.85-27.82,20.85-46.1s-8.06-34.72-20.85-46c-7.32-4.82-15.87-7.57-25.05-7.57-14.89,0-28.22,7.28-37.16,18.8Z"/>
</svg>