<?xml version="1.0" encoding="UTF-8"?>
<svg id="Layer_1" data-name="Layer 1" xmlns="http://www.w3.org/2000/svg" xmlns:xlink="http://www.w3.org/1999/xlink" viewBox="0 0 125 125">
  <defs>
    <style>
      .cls-1 {
        fill: url(#linear-gradient);
      }

      .cls-1, .cls-2, .cls-3, .cls-4, .cls-5, .cls-6, .cls-7, .cls-8, .cls-9, .cls-10, .cls-11 {
        stroke-width: 0px;
      }

      .cls-2 {
        fill: url(#radial-gradient);
      }

      .cls-3 {
        fill: url(#linear-gradient-2);
        fill-opacity: .2;
      }

      .cls-5 {
        fill: #f3f3f3;
      }

      .cls-6 {
        fill: #fa5153;
      }

      .cls-7 {
        fill: #cd151e;
      }

      .cls-8 {
        fill: #acacac;
      }

      .cls-9 {
        fill: #fff;
      }

      .cls-10 {
        fill: #e2e2e2;
      }

      .cls-11 {
        fill: #eee;
      }
    </style>
    <linearGradient id="linear-gradient" x1="62.5" y1="124" x2="62.5" y2="-1" gradientTransform="translate(0 1)" gradientUnits="userSpaceOnUse">
      <stop offset=".25" stop-color="#dbdbda"/>
      <stop offset="1" stop-color="#fff"/>
    </linearGradient>
    <radialGradient id="radial-gradient" cx="-239.56" cy="-329.28" fx="-239.56" fy="-329.28" r="1" gradientTransform="translate(16975.72 23286.4) scale(70.57)" gradientUnits="userSpaceOnUse">
      <stop offset="0" stop-color="#2abce1"/>
      <stop offset=".11" stop-color="#2abbe1"/>
      <stop offset="1" stop-color="#3375f8"/>
    </radialGradient>
    <linearGradient id="linear-gradient-2" x1="69.61" y1="49.31" x2="42.63" y2="97.72" gradientTransform="translate(0 1)" gradientUnits="userSpaceOnUse">
      <stop offset="0" stop-color="#000" stop-opacity="0"/>
      <stop offset="1" stop-color="#000"/>
    </linearGradient>
  </defs>
  <path class="cls-1" d="m62.5,125c34.52,0,62.5-27.98,62.5-62.5S97.02,0,62.5,0,0,27.98,0,62.5s27.98,62.5,62.5,62.5Z"/>
  <path class="cls-2" d="m62.5,120.31c31.93,0,57.81-25.88,57.81-57.81S94.43,4.69,62.5,4.69,4.69,30.57,4.69,62.5s25.88,57.81,57.81,57.81Z"/>
  <path class="cls-5" d="m62.6,18.75c-.39,0-.73-.29-.73-.68V7.86c0-.39.34-.68.73-.68s.73.29.73.68v10.21c-.05.39-.34.68-.73.68Z"/>
  <path class="cls-9" d="m62.6,18.8c-.44,0-.78-.34-.78-.73V7.86c0-.39.34-.73.78-.73s.78.34.78.73v10.21c0,.39-.39.73-.78.73Zm0-11.57c-.34,0-.68.29-.68.64v10.21c0,.34.29.63.68.63.34,0,.68-.29.68-.63V7.86c-.05-.34-.34-.64-.68-.64h0Z"/>
  <path class="cls-5" d="m67.48,13.28c-.39-.05-.68-.34-.68-.73l.34-4.54c.05-.39.39-.68.78-.63.39.05.68.34.68.73l-.34,4.54c-.05.39-.39.68-.78.63Z"/>
  <path class="cls-9" d="m67.48,13.33c-.44-.05-.73-.39-.73-.78l.34-4.54c.05-.39.39-.73.83-.68s.73.39.73.78l-.34,4.54c-.05.44-.39.73-.83.68Zm.44-5.91c-.34,0-.68.24-.68.59l-.34,4.54c0,.34.24.63.64.68.34,0,.68-.24.68-.59l.34-4.54c0-.34-.29-.63-.63-.68h-.01Z"/>
  <path class="cls-5" d="m71.14,19.63c-.39-.1-.63-.44-.59-.83l2-10.01c.1-.39.44-.63.83-.54.39.1.63.44.59.83l-2,10.01c-.05.34-.44.59-.83.54Z"/>
  <path class="cls-9" d="m71.15,19.68c-.44-.1-.68-.49-.63-.88l2-10.01c.1-.39.49-.68.93-.59.44.1.68.49.63.88l-2,10.01c-.1.39-.49.63-.93.59Zm2.29-11.38c-.34-.05-.68.15-.78.49l-2,10.01c-.05.34.15.68.54.78.34.05.68-.15.78-.49l2-10.01c.05-.39-.2-.68-.54-.78Z"/>
  <path class="cls-5" d="m77,15.23c-.09-.02-.18-.06-.26-.12-.08-.06-.14-.13-.19-.21s-.08-.17-.1-.27c-.01-.09-.01-.19.01-.28l1.22-4.39c.1-.39.49-.59.88-.49s.64.49.54.88l-1.22,4.39c-.1.39-.49.59-.88.49Z"/>
  <path class="cls-9" d="m77,15.28c-.39-.1-.68-.54-.54-.93l1.22-4.4c.1-.39.54-.63.93-.54.39.1.68.54.54.93l-1.22,4.4c-.1.39-.49.63-.93.54Zm1.61-5.71c-.34-.1-.73.1-.83.44l-1.22,4.39c-.1.34.1.68.49.78.34.1.73-.1.83-.44l1.22-4.4c.05-.34-.15-.68-.49-.78h0Z"/>
  <path class="cls-5" d="m79.4,22.12c-.39-.15-.54-.59-.39-.93l3.91-9.42c.15-.34.59-.54.93-.34.39.15.54.59.39.93l-3.91,9.42c-.15.34-.59.54-.93.34Z"/>
  <path class="cls-9" d="m79.39,22.17c-.19-.07-.34-.21-.42-.4-.08-.18-.09-.39-.02-.58l3.91-9.42c.15-.39.59-.54,1.03-.39.19.07.34.21.42.4.08.18.09.39.02.58l-3.91,9.42c-.2.39-.64.59-1.03.39Zm4.44-10.69c-.34-.15-.73,0-.88.34l-3.91,9.42c-.15.34.05.68.39.83s.73,0,.88-.34l3.91-9.42c.1-.29-.05-.68-.39-.83Z"/>
  <path class="cls-5" d="m85.99,18.99c-.34-.2-.49-.59-.34-.93l2.05-4.05c.2-.34.59-.49.98-.29.34.2.49.59.34.93l-2.05,4.05c-.2.34-.59.49-.98.29Z"/>
  <path class="cls-9" d="m85.99,19.04c-.39-.2-.54-.64-.34-1.03l2.05-4.05c.2-.39.64-.54,1.03-.34s.54.63.34,1.03l-2.05,4.05c-.2.39-.63.54-1.02.34h-.01Zm2.69-5.32c-.34-.15-.73-.05-.88.29l-2.05,4.05c-.15.29,0,.68.29.88.34.15.73.05.88-.29l2.05-4.05c.15-.29,0-.68-.29-.88Z"/>
  <path class="cls-5" d="m86.96,26.22c-.34-.24-.44-.68-.2-.98l5.66-8.45c.2-.34.64-.39.98-.2.34.24.44.68.2.98l-5.66,8.45c-.2.34-.63.44-.98.2Z"/>
  <path class="cls-9" d="m86.96,26.27c-.34-.24-.44-.73-.24-1.07l5.66-8.45c.24-.34.68-.44,1.07-.2.34.24.44.73.24,1.07l-5.66,8.45c-.24.34-.73.44-1.07.2Zm6.45-9.62c-.29-.2-.73-.15-.93.15l-5.66,8.45c-.2.29-.1.68.2.88.29.2.73.15.93-.15l5.66-8.4c.2-.29.1-.73-.2-.93Z"/>
  <path class="cls-5" d="m94.09,24.41c-.29-.24-.39-.68-.15-.98l2.83-3.56c.24-.29.68-.34.98-.1.29.24.39.68.15.98l-2.83,3.56c-.24.29-.68.34-.98.1Z"/>
  <path class="cls-9" d="m94.04,24.46c-.34-.24-.39-.73-.15-1.07l2.83-3.56c.24-.34.73-.39,1.07-.1.34.24.39.73.15,1.07l-2.83,3.56c-.24.34-.73.39-1.07.1Zm3.66-4.64c-.29-.24-.68-.2-.93.1l-2.83,3.56c-.2.29-.15.68.15.93.29.24.68.2.93-.1l2.83-3.56c.2-.29.15-.73-.15-.93Z"/>
  <path class="cls-5" d="m93.6,31.74c-.29-.29-.29-.73,0-.98l7.23-7.18c.29-.29.73-.24.98,0,.24.24.29.73,0,.98l-7.18,7.18c-.29.29-.73.29-1.03,0Z"/>
  <path class="cls-9" d="m93.56,31.79c-.14-.14-.22-.34-.22-.54s.08-.39.22-.54l7.23-7.18c.14-.14.34-.22.54-.22s.39.08.54.22c.14.14.22.34.22.54s-.08.39-.22.54l-7.23,7.18c-.14.14-.34.22-.54.22s-.39-.08-.54-.22Zm8.25-8.2c-.24-.24-.68-.24-.93,0l-7.23,7.18c-.24.24-.24.68,0,.93.24.24.68.24.93,0l7.23-7.18c.24-.24.24-.64,0-.93Z"/>
  <path class="cls-5" d="m100.93,31.35c-.24-.29-.24-.73.05-.98l3.47-2.93c.29-.24.73-.2.98.1.24.29.24.73-.05.98l-3.47,2.93c-.29.24-.73.19-.98-.1Z"/>
  <path class="cls-9" d="m100.88,31.4c-.29-.34-.24-.83.05-1.07l3.47-2.93c.29-.29.78-.24,1.07.1s.24.83-.05,1.07l-3.47,2.93c-.29.29-.78.24-1.07-.1Zm4.49-3.86c-.25-.29-.64-.29-.93-.1l-3.47,2.93c-.24.24-.29.63-.05.93.24.29.63.29.93.1l3.47-2.93c.29-.24.29-.63.05-.93Z"/>
  <path class="cls-5" d="m98.97,38.38c-.24-.34-.15-.78.2-.98l8.5-5.66c.34-.2.78-.1.98.2.24.34.15.78-.2.98l-8.5,5.66c-.29.2-.73.1-.98-.2Z"/>
  <path class="cls-9" d="m98.93,38.38c-.24-.34-.15-.83.2-1.07l8.5-5.66c.34-.24.83-.15,1.07.24.24.34.15.83-.19,1.07l-8.5,5.66c-.34.24-.83.15-1.07-.24h0Zm9.67-6.4c-.19-.29-.59-.39-.88-.2l-8.5,5.66c-.29.2-.39.59-.15.93.2.29.59.39.88.2l8.5-5.66c.29-.24.34-.64.15-.93Z"/>
  <path class="cls-5" d="m106.25,39.4c-.2-.34-.1-.78.24-.98l3.96-2.25c.34-.2.78-.05.98.29.2.34.1.78-.24.98l-3.96,2.25c-.34.2-.78.05-.98-.29Z"/>
  <path class="cls-9" d="m106.2,39.45c-.19-.39-.1-.83.25-1.03l3.95-2.25c.34-.2.83-.05,1.03.29.19.39.1.83-.24,1.03l-3.96,2.25c-.34.2-.83.05-1.03-.29Zm5.18-2.93c-.19-.34-.59-.44-.88-.24l-3.96,2.25c-.29.19-.39.59-.24.88.19.34.59.44.88.24l3.96-2.25c.29-.15.39-.54.24-.88Z"/>
  <path class="cls-5" d="m102.98,45.9c-.15-.39,0-.78.39-.93l9.42-3.91c.34-.15.78.05.93.39.15.39,0,.78-.39.93l-9.42,3.91c-.34.15-.78,0-.93-.39Z"/>
  <path class="cls-9" d="m102.93,45.95c-.15-.39,0-.83.39-1.03l9.42-3.91c.19-.07.4-.06.58.02s.33.23.4.42c.15.39,0,.83-.39,1.03l-9.42,3.91c-.19.07-.4.06-.58-.02s-.33-.23-.4-.42Zm10.69-4.44c-.15-.34-.54-.49-.83-.39l-9.42,3.91c-.34.15-.49.54-.34.88s.54.49.83.39l9.42-3.91c.34-.15.49-.54.34-.88Z"/>
  <path class="cls-5" d="m109.86,48.34c-.15-.39.05-.78.44-.93l4.3-1.42c.34-.15.78.1.88.44.15.39-.05.78-.44.93l-4.3,1.42c-.34.15-.73-.05-.88-.44Z"/>
  <path class="cls-9" d="m109.82,48.39c-.15-.39.05-.83.49-.98l4.3-1.42c.39-.15.83.1.98.49.15.39-.05.83-.49.98l-4.3,1.42c-.39.1-.83-.1-.98-.49Zm5.66-1.85c-.1-.34-.49-.54-.83-.44l-4.3,1.42c-.34.1-.49.49-.39.83s.49.54.83.44l4.3-1.42c.34-.15.49-.49.39-.83Z"/>
  <path class="cls-5" d="m105.47,54.15c-.1-.39.15-.78.54-.83l10.01-1.95c.39-.1.73.2.83.59s-.15.78-.54.83l-10.01,1.95c-.39.05-.78-.2-.83-.59Z"/>
  <path class="cls-9" d="m105.37,54.15c-.1-.44.19-.83.59-.93l10.01-1.95c.39-.1.78.2.88.64s-.19.83-.58.93l-10.01,1.95c-.39.1-.78-.19-.88-.63h0Zm11.38-2.2c-.05-.34-.39-.59-.73-.54l-10.01,1.95c-.34.05-.59.44-.49.78.05.34.39.59.73.54l10.01-1.95c.34-.1.58-.44.49-.78Z"/>
  <path class="cls-5" d="m111.72,57.91c-.05-.39.19-.73.59-.78l4.49-.54c.39-.05.73.24.78.63.05.39-.19.73-.59.78l-4.49.54c-.34.05-.73-.24-.78-.63Z"/>
  <path class="cls-9" d="m111.67,57.91c-.05-.44.24-.83.64-.88l4.49-.54c.39-.05.78.24.83.68s-.24.83-.63.88l-4.49.54c-.39.05-.78-.24-.83-.68h-.01Zm5.91-.68c-.05-.34-.39-.63-.73-.59l-4.49.54c-.34.05-.59.39-.54.73.05.34.39.64.73.59l4.49-.54c.34-.05.58-.39.54-.73Z"/>
  <path class="cls-5" d="m106.25,62.65c0-.39.29-.73.68-.73h10.21c.39,0,.68.34.68.73s-.29.73-.68.73h-10.21c-.39,0-.68-.34-.68-.73Z"/>
  <path class="cls-9" d="m106.2,62.65c0-.44.34-.78.73-.78h10.21c.39,0,.73.34.73.78s-.34.78-.73.78h-10.21c-.39,0-.73-.34-.73-.78Zm11.57.05c0-.34-.29-.68-.64-.68h-10.2c-.34,0-.63.29-.63.68,0,.34.29.68.63.68h10.21c.34-.05.63-.34.63-.68Z"/>
  <path class="cls-5" d="m111.67,67.58c.05-.39.34-.68.73-.68l4.54.34c.39.05.68.39.63.78s-.34.68-.73.68l-4.54-.34c-.34-.05-.63-.39-.63-.78Z"/>
  <path class="cls-9" d="m111.62,67.58c.05-.44.39-.73.78-.73l4.54.34c.39.05.73.39.68.83s-.39.73-.78.73l-4.54-.34c-.39-.05-.68-.44-.68-.83Zm5.96.44c.05-.34-.24-.68-.59-.68l-4.54-.34c-.34,0-.63.24-.68.63-.05.34.24.68.59.68l4.54.34c.34,0,.64-.29.68-.63Z"/>
  <path class="cls-5" d="m105.37,71.14c.1-.39.44-.63.83-.59l10.01,2c.39.1.64.44.54.83s-.44.64-.83.59l-10.01-2c-.34-.05-.59-.44-.54-.83Z"/>
  <path class="cls-9" d="m105.32,71.14c.1-.44.49-.68.88-.64l10.01,2c.39.1.68.49.58.93s-.49.68-.88.63l-10.01-2c-.39-.1-.63-.49-.59-.93h0Zm11.38,2.29c.05-.34-.15-.68-.49-.78l-10.01-2c-.34-.05-.68.15-.78.54-.05.34.15.68.49.78l10.01,2c.39.05.68-.2.78-.54Z"/>
  <path class="cls-5" d="m109.77,77c.02-.09.06-.18.12-.26.06-.08.13-.14.21-.19s.17-.08.27-.1c.1-.01.19-.01.28.01l4.4,1.22c.39.1.58.49.49.88-.02.09-.06.18-.12.26-.06.08-.13.14-.21.19s-.17.08-.27.1c-.1.01-.19.01-.28-.01l-4.4-1.22c-.39-.1-.58-.49-.49-.88Z"/>
  <path class="cls-9" d="m109.72,77c.1-.39.54-.68.93-.54l4.39,1.22c.39.1.63.54.54.93-.1.39-.54.68-.93.54l-4.4-1.22c-.39-.1-.63-.49-.54-.93h.01Zm5.71,1.61c.1-.34-.1-.73-.44-.83l-4.39-1.22c-.34-.1-.68.1-.78.49-.1.34.1.73.44.83l4.4,1.22c.34.05.68-.15.78-.49h-.01Z"/>
  <path class="cls-5" d="m102.88,79.35c.15-.39.59-.54.93-.39l9.42,3.91c.34.15.54.59.39.93-.15.39-.59.54-.93.39l-9.42-3.91c-.39-.15-.54-.59-.39-.93Z"/>
  <path class="cls-9" d="m102.83,79.3c.07-.19.21-.34.4-.42.18-.08.39-.09.58-.02l9.42,3.91c.39.15.54.59.39,1.03-.07.19-.21.34-.4.42-.18.08-.39.09-.58.02l-9.42-3.91c-.39-.2-.54-.64-.39-1.03Zm10.69,4.44c.15-.34,0-.73-.34-.88l-9.42-3.91c-.34-.15-.68.05-.83.39s0,.73.34.88l9.42,3.91c.34.1.73-.05.83-.39Z"/>
  <path class="cls-5" d="m106.05,85.94c.2-.34.59-.49.93-.34l4.05,2.05c.34.15.49.59.29.98-.19.34-.59.49-.93.34l-4.05-2.05c-.34-.2-.49-.64-.29-.98Z"/>
  <path class="cls-9" d="m106,85.89c.2-.39.64-.54,1.03-.34l4.05,2.05c.39.2.54.63.34,1.03-.2.39-.64.54-1.03.34l-4.05-2.05c-.39-.15-.54-.64-.34-1.03Zm5.27,2.69c.15-.34.05-.73-.29-.88l-4.05-2.05c-.29-.15-.68,0-.88.29-.15.34-.05.73.29.88l4.05,2.05c.34.15.73.05.88-.29Z"/>
  <path class="cls-5" d="m98.88,86.87c.24-.34.64-.44.98-.2l8.5,5.66c.34.2.39.64.2.98-.24.34-.63.44-.98.2l-8.5-5.66c-.34-.24-.44-.68-.2-.98Z"/>
  <path class="cls-9" d="m98.83,86.82c.24-.34.73-.44,1.07-.24l8.5,5.66c.34.24.44.68.2,1.07-.25.34-.73.44-1.07.24l-8.5-5.66c-.39-.24-.44-.73-.2-1.07Zm9.62,6.45c.19-.29.15-.73-.15-.93l-8.5-5.66c-.29-.2-.68-.1-.88.2-.2.29-.15.73.15.93l8.5,5.66c.29.2.68.1.88-.2Z"/>
  <path class="cls-5" d="m100.69,93.95c.24-.29.68-.39.98-.15l3.56,2.78c.29.24.34.68.1.98-.24.29-.68.39-.98.15l-3.56-2.78c-.29-.24-.34-.68-.1-.98Z"/>
  <path class="cls-9" d="m100.63,93.9c.24-.34.73-.39,1.07-.15l3.56,2.78c.34.24.39.73.15,1.07s-.73.39-1.07.15l-3.57-2.78c-.34-.24-.39-.73-.15-1.07h.01Zm4.69,3.66c.24-.29.19-.68-.1-.93l-3.56-2.78c-.29-.2-.68-.15-.93.15-.25.29-.2.68.1.93l3.56,2.78c.29.2.69.15.93-.15Z"/>
  <path class="cls-5" d="m93.41,93.46c.29-.29.73-.29.98,0l7.23,7.18c.29.29.25.73,0,.98-.29.29-.73.29-.98,0l-7.23-7.18c-.24-.24-.24-.73,0-.98Z"/>
  <path class="cls-9" d="m93.41,93.41c.14-.14.34-.22.54-.22s.39.08.54.22l7.23,7.18c.14.14.22.34.22.54s-.08.39-.22.54c-.14.14-.34.22-.54.22s-.39-.08-.54-.22l-7.23-7.18c-.34-.29-.34-.78,0-1.07h0Zm8.2,8.15c.25-.24.25-.68,0-.93l-7.23-7.18c-.24-.24-.68-.24-.93,0-.24.24-.24.68,0,.93l7.23,7.18c.24.29.64.29.93,0Z"/>
  <path class="cls-5" d="m93.85,100.73c.29-.24.73-.24.98.05l2.98,3.42c.24.29.2.73-.1.98-.29.24-.73.24-.98-.05l-2.98-3.42c-.24-.24-.2-.68.1-.98Z"/>
  <path class="cls-9" d="m93.8,100.73c.34-.29.78-.24,1.07.05l2.98,3.42c.29.29.24.78-.1,1.07s-.78.24-1.07-.05l-2.98-3.42c-.24-.34-.24-.83.1-1.07Zm3.91,4.44c.29-.25.29-.64.1-.93l-2.98-3.42c-.24-.24-.63-.29-.93-.05-.29.24-.29.64-.1.93l2.98,3.42c.24.29.64.29.93.05Z"/>
  <path class="cls-5" d="m86.81,98.88c.34-.24.78-.15.98.2l5.66,8.45c.2.34.1.78-.2.98-.34.24-.78.15-.98-.2l-5.66-8.45c-.2-.34-.1-.78.2-.98Z"/>
  <path class="cls-9" d="m86.82,98.83c.34-.24.83-.15,1.07.2l5.66,8.45c.24.34.15.83-.24,1.07-.34.24-.83.15-1.07-.2l-5.66-8.45c-.24-.39-.15-.83.24-1.07Zm6.45,9.62c.29-.19.39-.59.2-.88l-5.66-8.45c-.2-.29-.59-.34-.93-.15-.29.2-.39.59-.2.88l5.66,8.45c.2.24.64.34.93.15Z"/>
  <path class="cls-5" d="m85.79,106.11c.34-.19.78-.1.98.24l2.25,3.96c.2.34.05.78-.29.98-.34.19-.78.1-.98-.24l-2.25-3.95c-.15-.34-.05-.78.29-.98h0Z"/>
  <path class="cls-9" d="m85.79,106.06c.39-.2.83-.1,1.03.24l2.25,3.95c.2.34.1.83-.29,1.03-.39.19-.83.1-1.03-.24l-2.25-3.96c-.2-.34-.1-.78.29-1.03h0Zm2.93,5.18c.29-.19.44-.59.24-.88l-2.25-3.95c-.2-.29-.59-.39-.88-.25-.29.2-.44.59-.24.88l2.25,3.96c.15.29.59.44.88.24Z"/>
  <path class="cls-5" d="m79.3,102.88c.39-.15.78,0,.93.34l3.95,9.42c.15.34-.05.78-.39.93s-.78,0-.93-.34l-3.96-9.42c-.15-.34.05-.78.39-.93h.01Z"/>
  <path class="cls-9" d="m79.3,102.83c.39-.15.83,0,1.03.39l3.95,9.42c.07.19.06.4-.02.58-.08.18-.23.33-.42.4-.39.15-.83,0-1.03-.39l-3.95-9.42c-.15-.34.05-.78.44-.98Zm4.44,10.69c.34-.15.49-.54.34-.83l-3.95-9.42c-.15-.34-.54-.49-.88-.34s-.49.54-.34.83l3.95,9.42c.2.34.54.49.88.34Z"/>
  <path class="cls-5" d="m76.9,109.81c.39-.15.78.05.93.44l1.42,4.3c.15.34-.1.78-.44.88-.39.15-.78-.05-.93-.44l-1.42-4.3c-.15-.34.05-.73.44-.88Z"/>
  <path class="cls-9" d="m76.86,109.77c.19-.07.4-.06.58.02.18.08.33.23.4.42l1.42,4.3c.15.39-.1.83-.49.98-.19.07-.4.06-.58-.02-.18-.08-.33-.23-.4-.42l-1.42-4.3c-.1-.39.1-.83.49-.98Zm1.9,5.61c.34-.1.54-.49.44-.83l-1.42-4.3c-.1-.34-.49-.49-.83-.39-.34.1-.54.49-.44.83l1.42,4.3c.03.08.07.16.12.23.06.06.13.12.2.15.08.04.16.06.25.06s.17-.02.25-.05h.01Z"/>
  <path class="cls-5" d="m71.14,105.37c.39-.1.78.15.83.54l2.05,10.01c.1.39-.2.73-.59.83s-.78-.15-.83-.54l-2.05-10.01c-.05-.34.2-.73.59-.83Z"/>
  <path class="cls-9" d="m71.14,105.32c.44-.1.83.19.93.59l2.05,10.01c.1.39-.2.83-.59.88-.44.1-.83-.19-.93-.58l-2.05-10.01c-.1-.39.15-.78.59-.88h0Zm2.29,11.38c.34-.05.59-.39.54-.78l-2.05-10.01c-.05-.34-.44-.59-.78-.49-.34.05-.59.39-.54.78l2.05,10.01c.1.34.44.54.78.49Z"/>
  <path class="cls-5" d="m67.43,111.72c.39-.05.73.19.83.59l.59,4.49c.05.39-.24.73-.64.78-.39.05-.73-.19-.83-.59l-.59-4.49c-.05-.39.24-.73.63-.78h.01Z"/>
  <path class="cls-9" d="m67.43,111.67c.44-.05.83.25.88.64l.59,4.49c.05.39-.24.78-.68.83s-.83-.24-.88-.63l-.59-4.49c-.05-.39.24-.78.68-.83h0Zm.73,5.86c.34-.05.64-.39.59-.73l-.59-4.49c-.05-.34-.39-.59-.73-.54-.34.05-.64.39-.59.73l.59,4.49c.05.34.39.59.73.54Z"/>
  <path class="cls-5" d="m62.4,106.25c.39,0,.73.29.73.68v10.21c0,.39-.34.68-.73.68s-.73-.29-.73-.68v-10.21c.05-.39.34-.68.73-.68Z"/>
  <path class="cls-9" d="m62.4,106.2c.44,0,.78.34.78.73v10.21c0,.39-.34.73-.78.73s-.78-.34-.78-.73v-10.21c0-.39.39-.73.78-.73Zm0,11.57c.34,0,.68-.29.68-.63v-10.21c0-.34-.29-.63-.68-.63-.34,0-.68.29-.68.63v10.21c.05.34.34.63.68.63Z"/>
  <path class="cls-5" d="m57.52,111.72c.39.05.68.34.68.73l-.34,4.54c-.05.39-.39.68-.78.64-.39-.05-.68-.34-.68-.73l.34-4.54c.05-.39.39-.68.78-.63h0Z"/>
  <path class="cls-9" d="m57.52,111.67c.44.05.73.39.73.78l-.34,4.54c-.05.39-.39.73-.83.68-.44-.05-.73-.39-.73-.78l.34-4.54c.05-.44.39-.73.83-.68Zm-.44,5.91c.34,0,.68-.24.68-.59l.34-4.54c0-.34-.24-.63-.64-.68-.34,0-.68.24-.68.59l-.34,4.54c0,.34.29.64.63.68h0Z"/>
  <path class="cls-5" d="m53.85,105.37c.39.1.63.44.59.83l-2,10.01c-.1.39-.44.63-.83.54-.39-.1-.63-.44-.59-.83l2-10.01c.05-.34.44-.59.83-.54Z"/>
  <path class="cls-9" d="m53.86,105.32c.44.1.68.49.63.88l-2,10.01c-.1.39-.49.68-.93.59-.44-.1-.68-.49-.64-.88l2-10.01c.1-.39.49-.63.93-.59h0Zm-2.29,11.38c.34.05.68-.15.78-.49l2-10.01c.05-.34-.15-.68-.54-.78-.34-.05-.68.15-.78.49l-2,10.01c-.05.39.2.68.54.78Z"/>
  <path class="cls-5" d="m48,109.77c.39.1.63.49.54.88l-1.22,4.39c-.1.39-.49.58-.88.49-.09-.02-.18-.06-.26-.12-.08-.06-.14-.13-.19-.21s-.08-.17-.1-.27c0-.09,0-.19,0-.28l1.22-4.4c.1-.39.49-.58.88-.49h0Z"/>
  <path class="cls-9" d="m48,109.72c.39.1.68.54.54.93l-1.22,4.39c-.1.39-.54.64-.93.54s-.68-.54-.54-.93l1.22-4.4c.1-.39.49-.63.93-.54h0Zm-1.61,5.71c.34.1.73-.1.83-.44l1.22-4.39c.1-.34-.1-.68-.49-.78-.34-.1-.73.1-.83.44l-1.22,4.4c-.05.34.15.68.49.78h0Z"/>
  <path class="cls-5" d="m45.61,102.88c.39.15.54.59.39.93l-3.91,9.42c-.15.34-.59.54-.93.34-.34-.19-.54-.59-.39-.93l3.91-9.42c.15-.34.59-.54.93-.34Z"/>
  <path class="cls-9" d="m45.6,102.83c.19.07.34.21.42.4.08.18.09.39.02.58l-3.91,9.42c-.15.39-.59.54-1.03.39-.19-.07-.34-.22-.42-.4-.08-.18-.09-.39-.02-.58l3.91-9.42c.2-.39.64-.59,1.03-.39Zm-4.44,10.69c.34.15.73,0,.88-.34l3.91-9.42c.15-.34-.05-.68-.39-.83s-.73,0-.88.34l-3.91,9.42c-.1.29.05.68.39.83Z"/>
  <path class="cls-5" d="m39.02,106.01c.34.19.49.58.34.93l-2.05,4.05c-.2.34-.59.49-.98.29-.34-.19-.49-.59-.34-.93l2.05-4.05c.2-.34.59-.49.98-.29Z"/>
  <path class="cls-9" d="m39.02,105.96c.39.19.54.63.34,1.03l-2.05,4.05c-.2.39-.64.54-1.03.34-.39-.19-.54-.64-.34-1.03l2.05-4.05c.2-.39.63-.54,1.03-.34Zm-2.69,5.32c.34.15.73.05.88-.29l2.05-4.05c.15-.29,0-.68-.29-.88-.34-.15-.73-.05-.88.29l-2.05,4.05c-.15.29,0,.68.29.88Z"/>
  <path class="cls-5" d="m38.03,98.78c.34.24.44.68.2.98l-5.66,8.45c-.2.34-.64.39-.98.19-.34-.24-.44-.68-.2-.98l5.66-8.45c.2-.34.63-.44.98-.19Z"/>
  <path class="cls-9" d="m38.04,98.73c.34.24.44.73.24,1.07l-5.66,8.45c-.24.34-.68.44-1.07.19-.34-.24-.44-.73-.24-1.07l5.66-8.45c.24-.34.73-.44,1.07-.2h0Zm-6.45,9.62c.29.19.73.15.93-.15l5.66-8.45c.19-.29.1-.68-.2-.88-.29-.19-.73-.15-.93.15l-5.66,8.4c-.2.29-.1.73.2.93Z"/>
  <path class="cls-5" d="m30.91,100.58c.29.24.39.68.15.98l-2.83,3.57c-.24.29-.68.34-.98.1-.29-.24-.39-.68-.15-.98l2.83-3.57c.24-.29.68-.34.98-.1Z"/>
  <path class="cls-9" d="m30.96,100.54c.34.24.39.73.15,1.07l-2.83,3.57c-.24.34-.73.39-1.07.1-.34-.24-.39-.73-.15-1.07l2.83-3.56c.24-.34.73-.39,1.07-.1h0Zm-3.66,4.64c.29.24.68.2.93-.1l2.83-3.56c.2-.29.15-.68-.15-.93-.29-.25-.68-.2-.93.1l-2.83,3.56c-.19.29-.15.73.15.93Z"/>
  <path class="cls-5" d="m31.4,93.26c.29.29.29.73,0,.98l-7.23,7.18c-.29.29-.73.24-.98,0-.24-.24-.29-.73,0-.98l7.18-7.18c.29-.29.73-.29,1.03,0Z"/>
  <path class="cls-9" d="m31.44,93.21c.14.14.22.34.22.54s-.08.39-.22.54l-7.23,7.18c-.14.14-.34.22-.54.22s-.39-.08-.54-.22c-.14-.14-.22-.34-.22-.54s.08-.39.22-.54l7.23-7.18c.14-.14.34-.22.54-.22s.39.08.54.22Zm-8.25,8.2c.24.24.68.24.93,0l7.23-7.18c.24-.24.24-.68,0-.93-.24-.24-.68-.24-.93,0l-7.23,7.18c-.24.24-.24.64,0,.93Z"/>
  <path class="cls-5" d="m24.07,93.65c.24.29.24.73-.05.98l-3.47,2.93c-.29.24-.73.2-.98-.1-.24-.29-.24-.73.05-.98l3.47-2.93c.29-.24.73-.2.98.1Z"/>
  <path class="cls-9" d="m24.12,93.6c.29.34.24.83-.05,1.07l-3.47,2.93c-.29.29-.78.24-1.07-.1-.29-.34-.24-.83.05-1.07l3.47-2.93c.29-.29.78-.24,1.07.1Zm-4.49,3.86c.24.29.64.29.93.1l3.47-2.93c.24-.24.29-.63.05-.93-.24-.29-.64-.29-.93-.1l-3.47,2.93c-.29.24-.29.64-.05.93Z"/>
  <path class="cls-5" d="m26.03,86.62c.24.34.15.78-.2.98l-8.5,5.66c-.34.2-.78.1-.98-.2-.24-.34-.15-.78.2-.98l8.5-5.66c.29-.2.73-.1.98.2Z"/>
  <path class="cls-9" d="m26.08,86.62c.24.34.15.83-.2,1.07l-8.5,5.66c-.34.24-.83.15-1.07-.24-.24-.34-.15-.83.2-1.07l8.5-5.66c.34-.24.83-.15,1.07.24Zm-9.67,6.4c.2.29.59.39.88.2l8.5-5.66c.29-.2.39-.59.15-.93-.2-.29-.59-.39-.88-.2l-8.5,5.66c-.29.24-.34.63-.15.93Z"/>
  <path class="cls-5" d="m18.75,85.6c.2.34.1.78-.24.98l-3.96,2.25c-.34.2-.78.05-.98-.29-.2-.34-.1-.78.24-.98l3.96-2.25c.34-.2.78-.05.98.29Z"/>
  <path class="cls-9" d="m18.8,85.55c.19.39.1.83-.24,1.03l-3.96,2.25c-.34.2-.83.05-1.03-.29-.2-.39-.1-.83.24-1.03l3.96-2.25c.34-.2.83-.05,1.03.29Zm-5.18,2.93c.2.34.59.44.88.24l3.96-2.25c.29-.2.39-.59.24-.88-.2-.34-.59-.44-.88-.24l-3.96,2.25c-.29.15-.39.54-.24.88Z"/>
  <path class="cls-5" d="m22.02,79.1c.15.39,0,.78-.39.93l-9.42,3.91c-.34.15-.78-.05-.93-.39-.15-.39,0-.78.39-.93l9.42-3.91c.34-.15.78,0,.93.39Z"/>
  <path class="cls-9" d="m22.07,79.05c.15.39,0,.83-.39,1.03l-9.42,3.91c-.19.07-.4.06-.58-.02-.18-.08-.33-.23-.4-.42-.15-.39,0-.83.39-1.03l9.42-3.91c.19-.07.4-.06.58.02.18.08.33.23.4.42Zm-10.69,4.44c.15.34.54.49.83.39l9.42-3.91c.34-.15.49-.54.34-.88s-.54-.49-.83-.39l-9.42,3.91c-.34.15-.49.54-.34.88Z"/>
  <path class="cls-5" d="m15.14,76.66c.15.39-.05.78-.44.93l-4.3,1.42c-.34.15-.78-.1-.88-.44-.15-.39.05-.78.44-.93l4.3-1.42c.34-.15.73.05.88.44Z"/>
  <path class="cls-9" d="m15.18,76.61c.15.39-.05.83-.49.98l-4.3,1.42c-.39.15-.83-.1-.98-.49-.15-.39.05-.83.49-.98l4.3-1.42c.39-.1.83.1.98.49Zm-5.66,1.86c.1.34.49.54.83.44l4.3-1.42c.34-.1.49-.49.39-.83-.1-.34-.49-.54-.83-.44l-4.3,1.42c-.34.15-.49.49-.39.83Z"/>
  <path class="cls-5" d="m19.53,70.85c.1.39-.15.78-.54.83l-10.01,1.95c-.39.1-.73-.2-.83-.59s.15-.78.54-.83l10.01-1.95c.39-.05.78.2.83.59Z"/>
  <path class="cls-9" d="m19.63,70.85c.1.44-.19.83-.59.93l-10.01,1.95c-.39.1-.78-.2-.88-.63-.1-.44.2-.83.59-.93l10.01-1.95c.39-.1.78.2.88.63Zm-11.38,2.2c.05.34.39.59.73.54l10.01-1.95c.34-.05.59-.44.49-.78-.05-.34-.39-.59-.73-.54l-10.01,1.95c-.34.1-.59.44-.49.78Z"/>
  <path class="cls-5" d="m13.28,67.09c.05.39-.2.73-.59.78l-4.49.54c-.39.05-.73-.24-.78-.64-.05-.39.2-.73.59-.78l4.49-.54c.34-.05.73.24.78.64Z"/>
  <path class="cls-9" d="m13.33,67.09c.05.44-.24.83-.64.88l-4.49.54c-.39.05-.78-.24-.83-.68s.24-.83.63-.88l4.49-.54c.39-.05.78.25.83.68h.01Zm-5.91.68c.05.34.39.63.73.59l4.49-.54c.34-.05.59-.39.54-.73-.05-.34-.39-.63-.73-.59l-4.49.54c-.34.05-.59.39-.54.73Z"/>
  <path class="cls-5" d="m18.75,62.35c0,.39-.29.73-.68.73H7.86c-.39,0-.68-.34-.68-.73s.29-.73.68-.73h10.21c.39,0,.68.34.68.73Z"/>
  <path class="cls-9" d="m18.8,62.35c0,.44-.34.78-.73.78H7.86c-.39,0-.73-.34-.73-.78s.34-.78.73-.78h10.21c.39,0,.73.34.73.78Zm-11.57-.05c0,.34.29.68.64.68h10.2c.34,0,.64-.29.64-.68,0-.34-.29-.68-.64-.68H7.86c-.34.05-.64.34-.64.68h0Z"/>
  <path class="cls-10" d="m13.33,57.42c-.05.39-.34.68-.73.68l-4.54-.34c-.39-.05-.68-.39-.63-.78.05-.39.34-.68.73-.68l4.54.34c.34.05.63.39.63.78Z"/>
  <path class="cls-9" d="m13.38,57.42c-.05.44-.39.73-.78.73l-4.54-.34c-.39-.05-.73-.39-.68-.83.05-.44.39-.73.78-.73l4.54.34c.39.05.68.44.68.83Zm-5.96-.44c-.05.34.24.68.59.68l4.54.34c.34,0,.63-.24.68-.64.05-.34-.24-.68-.59-.68l-4.54-.34c-.34,0-.63.29-.68.63h0Z"/>
  <path class="cls-5" d="m19.63,53.86c-.1.39-.44.63-.83.59l-10.01-2.05c-.39-.1-.64-.44-.54-.83.1-.39.44-.64.83-.59l10.01,2c.34.1.59.49.54.88Z"/>
  <path class="cls-9" d="m19.68,53.86c-.1.44-.49.68-.88.64l-10.01-2c-.39-.1-.68-.49-.59-.93.1-.44.49-.68.88-.64l10.01,2c.39.1.63.49.59.93Zm-11.38-2.29c-.05.34.15.68.49.78l10.01,2c.34.05.68-.15.78-.54.05-.34-.15-.68-.49-.78l-10.01-2c-.39-.05-.68.2-.78.54Z"/>
  <path class="cls-5" d="m15.23,48c-.02.09-.06.18-.12.26-.06.08-.13.14-.21.19s-.17.08-.27.1c-.09,0-.19,0-.28,0l-4.39-1.22c-.39-.1-.59-.49-.49-.88.02-.09.06-.18.12-.26.06-.08.13-.14.21-.19s.17-.08.27-.1c.09,0,.19,0,.28,0l4.39,1.22c.39.1.59.49.49.88Z"/>
  <path class="cls-9" d="m15.28,48c-.1.39-.54.68-.93.54l-4.39-1.22c-.39-.1-.64-.54-.54-.93s.54-.68.93-.54l4.39,1.22c.39.1.64.49.54.93Zm-5.71-1.61c-.1.34.1.73.44.83l4.39,1.22c.34.1.68-.1.78-.49.1-.34-.1-.73-.44-.83l-4.39-1.22c-.34-.05-.68.15-.78.49Z"/>
  <path class="cls-5" d="m22.12,45.66c-.15.39-.59.54-.93.39l-9.42-3.91c-.34-.15-.54-.59-.39-.93.15-.39.59-.54.93-.39l9.42,3.91c.39.15.54.59.39.93Z"/>
  <path class="cls-9" d="m22.17,45.7c-.07.19-.21.34-.4.42-.18.08-.39.09-.58.02l-9.42-3.91c-.39-.15-.54-.59-.39-1.02.07-.19.21-.34.4-.42.18-.08.39-.09.58-.02l9.42,3.91c.39.19.54.64.39,1.03h0Zm-10.69-4.44c-.15.34,0,.73.34.88l9.42,3.91c.34.15.68-.05.83-.39s0-.73-.34-.88l-9.42-3.91c-.34-.1-.73.05-.83.39Z"/>
  <path class="cls-5" d="m18.95,39.06c-.2.34-.59.49-.93.34l-4.05-2.05c-.34-.15-.49-.59-.29-.98.2-.34.59-.49.93-.34l4.05,2.05c.34.2.49.64.29.98Z"/>
  <path class="cls-9" d="m18.99,39.11c-.2.39-.64.54-1.03.34l-4.05-2.05c-.39-.2-.54-.63-.34-1.03.2-.39.64-.54,1.03-.34l4.05,2.05c.39.15.54.63.34,1.02h0Zm-5.27-2.69c-.15.34-.05.73.29.88l4.05,2.05c.29.15.68,0,.88-.29.15-.34.05-.73-.29-.88l-4.1-2.05c-.29-.15-.68-.05-.83.29Z"/>
  <path class="cls-5" d="m26.12,38.13c-.24.34-.63.44-.98.2l-8.45-5.61c-.34-.2-.39-.64-.2-.98.2-.34.64-.44.98-.2l8.5,5.66c.29.2.39.64.15.93Z"/>
  <path class="cls-9" d="m26.17,38.18c-.24.34-.73.44-1.07.24l-8.45-5.66c-.34-.24-.44-.68-.2-1.07.24-.34.73-.44,1.07-.24l8.45,5.66c.39.24.44.73.2,1.07Zm-9.62-6.45c-.2.29-.15.73.15.93l8.5,5.67c.29.2.68.1.88-.2.2-.29.15-.73-.15-.93l-8.5-5.66c-.29-.2-.68-.1-.88.2h0Z"/>
  <path class="cls-5" d="m24.32,31.05c-.24.29-.68.39-.98.15l-3.56-2.78c-.29-.24-.34-.68-.1-.98.24-.29.68-.39.98-.15l3.56,2.78c.29.24.34.68.1.98Z"/>
  <path class="cls-9" d="m24.36,31.1c-.24.34-.73.39-1.07.15l-3.56-2.78c-.34-.24-.39-.73-.15-1.07s.73-.39,1.07-.15l3.56,2.78c.34.24.39.73.15,1.07Zm-4.69-3.66c-.24.29-.19.68.1.93l3.56,2.78c.29.19.68.15.93-.15.24-.29.2-.68-.1-.93l-3.56-2.78c-.29-.2-.68-.15-.93.15Z"/>
  <path class="cls-5" d="m31.59,31.54c-.29.29-.73.29-.98,0l-7.27-7.18c-.29-.29-.24-.73,0-.98.29-.29.73-.29.98,0l7.23,7.18c.29.24.29.73.05.98h0Z"/>
  <path class="cls-9" d="m31.59,31.59c-.14.14-.34.22-.54.22s-.39-.08-.54-.22l-7.23-7.18c-.14-.14-.22-.34-.22-.54s.08-.39.22-.54c.14-.14.34-.22.54-.22s.39.08.54.22l7.23,7.18c.34.29.34.78,0,1.08Zm-8.2-8.16c-.24.24-.24.68,0,.93l7.23,7.18c.24.24.68.24.93,0,.24-.24.24-.68,0-.93l-7.23-7.23c-.24-.24-.64-.24-.93.05Z"/>
  <path class="cls-5" d="m31.15,24.27c-.29.24-.73.24-.98-.05l-2.98-3.42c-.24-.29-.2-.73.1-.98.29-.24.73-.24.98.05l2.98,3.42c.24.24.2.68-.1.98Z"/>
  <path class="cls-9" d="m31.2,24.27c-.34.29-.78.24-1.07-.05l-2.98-3.42c-.29-.29-.24-.78.1-1.07.34-.29.78-.24,1.07.05l2.98,3.42c.24.34.24.83-.1,1.07Zm-3.91-4.44c-.29.24-.29.63-.1.93l2.98,3.42c.24.24.63.29.93.05.29-.24.29-.64.1-.93l-2.98-3.42c-.24-.29-.64-.29-.93-.05Z"/>
  <path class="cls-5" d="m38.19,26.12c-.34.24-.78.15-.98-.2l-5.71-8.45c-.2-.34-.1-.78.2-.98.34-.24.78-.15.98.2l5.66,8.45c.24.34.15.78-.15.98Z"/>
  <path class="cls-9" d="m38.18,26.17c-.34.24-.83.15-1.07-.2l-5.66-8.45c-.24-.34-.15-.83.24-1.07.34-.24.83-.15,1.07.2l5.66,8.45c.24.39.15.83-.24,1.07Zm-6.45-9.62c-.29.2-.39.59-.2.88l5.66,8.45c.2.29.59.34.93.15.29-.19.39-.59.2-.88l-5.66-8.4c-.2-.29-.64-.39-.93-.2Z"/>
  <path class="cls-5" d="m39.21,18.9c-.34.2-.78.1-.98-.24l-2.25-3.96c-.2-.34-.05-.78.29-.98.34-.2.78-.1.98.24l2.25,3.95c.15.34.05.78-.29.98h0Z"/>
  <path class="cls-9" d="m39.21,18.95c-.39.19-.83.1-1.03-.24l-2.25-3.95c-.19-.34-.1-.83.29-1.03s.83-.1,1.02.24l2.25,3.95c.2.34.1.78-.29,1.03h0Zm-2.93-5.18c-.29.2-.44.59-.24.88l2.25,3.96c.19.29.59.39.88.24.29-.2.44-.59.24-.88l-2.25-3.96c-.15-.29-.59-.44-.88-.24Z"/>
  <path class="cls-5" d="m45.7,22.12c-.39.15-.78,0-.93-.34l-3.95-9.42c-.15-.34.05-.78.39-.93.39-.15.78,0,.93.34l3.95,9.42c.15.34-.05.78-.39.93Z"/>
  <path class="cls-9" d="m45.7,22.17c-.39.15-.83,0-1.03-.39l-3.95-9.42c-.07-.19-.06-.4.02-.58s.23-.33.42-.4c.39-.15.83,0,1.03.39l3.95,9.42c.15.34-.05.78-.44.98Zm-4.44-10.69c-.34.15-.49.54-.34.83l3.95,9.42c.15.34.54.49.88.34s.49-.54.34-.83l-3.95-9.42c-.2-.34-.54-.49-.88-.34Z"/>
  <path class="cls-5" d="m48.09,15.19c-.39.15-.78-.05-.93-.44l-1.42-4.3c-.15-.34.1-.78.44-.88s.78.05.93.44l1.42,4.3c.15.34-.05.73-.44.88Z"/>
  <path class="cls-9" d="m48.15,15.23c-.19.07-.4.06-.58-.02-.18-.08-.33-.23-.4-.42l-1.42-4.3c-.15-.39.1-.83.49-.98.19-.07.4-.06.58.02.18.08.33.23.4.42l1.42,4.3c.1.39-.1.83-.49.98Zm-1.9-5.61c-.34.1-.54.49-.44.83l1.42,4.3c.1.34.49.49.83.39.34-.1.54-.49.44-.83l-1.42-4.3c-.02-.08-.07-.16-.12-.23-.06-.07-.13-.12-.2-.16-.08-.04-.16-.06-.25-.06s-.17.02-.25.05h-.01Z"/>
  <path class="cls-5" d="m53.86,19.63c-.39.1-.78-.15-.83-.54l-2.05-10.01c-.1-.39.2-.73.59-.83s.78.15.83.54l2.05,10.01c.05.34-.2.73-.59.83Z"/>
  <path class="cls-9" d="m53.86,19.68c-.44.1-.83-.2-.93-.59l-2.05-10.01c-.1-.39.2-.83.59-.88.44-.1.83.2.93.59l2.05,10.01c.1.39-.15.78-.59.88Zm-2.3-11.38c-.34.05-.59.39-.54.78l2.05,10.01c.05.34.44.59.78.49.34-.05.59-.39.54-.78l-2.05-10.01c-.1-.34-.44-.54-.78-.49Z"/>
  <path class="cls-5" d="m57.57,13.28c-.39.05-.73-.2-.83-.59l-.59-4.49c-.05-.39.24-.73.64-.78.39-.05.73.2.83.59l.59,4.49c.05.39-.24.73-.63.78h0Z"/>
  <path class="cls-9" d="m57.57,13.33c-.44.05-.83-.24-.88-.64l-.59-4.49c-.05-.39.24-.78.68-.83s.83.24.88.64l.59,4.49c.05.39-.24.78-.68.83Zm-.73-5.86c-.34.05-.63.39-.59.73l.59,4.49c.05.34.39.59.73.54s.63-.39.59-.73l-.59-4.49c-.05-.34-.39-.59-.73-.54Z"/>
  <path class="cls-3" d="m62.84,120.26c31.93,0,57.81-25.88,57.81-57.81S94.77,4.64,62.84,4.64,5.03,30.52,5.03,62.45s25.88,57.81,57.81,57.81Z"/>
  <path class="cls-4" d="m102.88,25.78l-46.63,29.88h-.05v.05l-.05.05-29.1,48,42.77-34.42.05-.05v-.05s33.01-43.46,33.01-43.46Z"/>
  <path class="cls-7" d="m102,23l-46.09,32.76,13.67,13.57,32.42-46.34h0Z"/>
  <path class="cls-6" d="m55.96,55.66l6.88,6.79,39.16-39.45-46.04,32.67h0Z"/>
  <path class="cls-8" d="m55.96,55.66l13.67,13.57-46.09,32.76,32.42-46.34h0Z"/>
  <path class="cls-11" d="m23.53,102l39.31-39.55-6.88-6.79-32.42,46.34h-.01Z"/>
</svg>